<?xml version="1.0" encoding="UTF-8" standalone="no"?>
<!-- Generator: Adobe Illustrator 9.0, SVG Export Plug-In  -->
<svg xmlns:dc="http://purl.org/dc/elements/1.1/" xmlns:cc="http://creativecommons.org/ns#" xmlns:rdf="http://www.w3.org/1999/02/22-rdf-syntax-ns#" xmlns:svg="http://www.w3.org/2000/svg" xmlns="http://www.w3.org/2000/svg" xmlns:sodipodi="http://sodipodi.sourceforge.net/DTD/sodipodi-0.dtd" xmlns:inkscape="http://www.inkscape.org/namespaces/inkscape" width="392.333pt" height="220.333pt" viewBox="0 0 392.333 220.333" xml:space="preserve" id="svg2" version="1.1" inkscape:version="0.47 r22583" sodipodi:docname="Decoder_Example.svg"><metadata id="metadata933"><rdf:RDF><cc:Work rdf:about=""><dc:format>image/svg+xml</dc:format><dc:type rdf:resource="http://purl.org/dc/dcmitype/StillImage"/></cc:Work></rdf:RDF></metadata><defs id="defs931"><inkscape:perspective sodipodi:type="inkscape:persp3d" inkscape:vp_x="0 : 137.70811 : 1" inkscape:vp_y="0 : 1000 : 0" inkscape:vp_z="490.41626 : 137.70811 : 1" inkscape:persp3d-origin="245.20813 : 91.80541 : 1" id="perspective935"/></defs><sodipodi:namedview pagecolor="#ffffff" bordercolor="#666666" borderopacity="1" objecttolerance="10" gridtolerance="10" guidetolerance="10" inkscape:pageopacity="0" inkscape:pageshadow="2" inkscape:window-width="1280" inkscape:window-height="714" id="namedview929" showgrid="false" inkscape:zoom="1.2218217" inkscape:cx="245.20813" inkscape:cy="170.44611" inkscape:window-x="-4" inkscape:window-y="-4" inkscape:window-maximized="1" inkscape:current-layer="Layer_x0020_1"/>
<g font-family="Verdana, Tahoma, sans-serif, 微软雅黑" text-anchor="middle">
	<g id="Layer_x0020_1" style="fill-rule:nonzero;clip-rule:nonzero;fill:none;stroke:#000000;stroke-linecap:round;stroke-linejoin:round;stroke-miterlimit:4;">
		<path style="fill:#FFFFFF;stroke-linecap:butt;stroke-linejoin:miter;" d="M391.833,219.833H0.5V0.5h391.333v219.333z" id="path5"/>
		<g id="g7">
			<path style="fill:#000000;stroke:none;" d="M83.6,60.4c-0.3-0.1-0.6,0.1-0.8,0.3c-0.3,0.2-0.4,0.5-0.4,0.8l1.3,0.2l-0.1-1.3z" id="path9"/>
			<path style="fill:#000000;stroke:none;" d="M83.6,60.4l0.1,1.3h1.2c-0.1-0.4-0.2-0.6-0.4-0.9c-0.3-0.2-0.5-0.4-0.9-0.4z" id="path11"/>
			<path style="fill:#000000;stroke:none;" d="M82.4,61.5c0,0.1,0,0.1,0,0.2c0,0.2,0.1,0.5,0.4,0.8c0.2,0.2,0.5,0.3,0.9,0.4v-1.2l-1.3-0.2z" id="path13"/>
			<path style="fill:#000000;stroke:none;" d="M83.7,61.7v1.2c0.4,0,0.6-0.1,0.9-0.4c0.2-0.2,0.3-0.5,0.3-0.8h-1.2z" id="path15"/>
			<path style="fill:#000000;stroke:none;" d="M55.7,37.5c-0.4-0.1-0.6,0.1-0.9,0.3c-0.2,0.2-0.4,0.5-0.3,0.8l1.2,0.1v-1.2z" id="path17"/>
			<path style="fill:#000000;stroke:none;" d="M55.7,40h0.1l-0.1-1.3l-1.2-0.1c0,0.1,0,0.1,0,0.1c0,0.3,0.1,0.6,0.3,0.9c0.3,0.2,0.6,0.3,0.9,0.4z" id="path19"/>
			<path style="fill:#000000;stroke:none;" d="M55.7,38.7l0.1,1.3c0.3,0,0.6-0.1,0.8-0.4c0.2-0.2,0.3-0.5,0.3-0.8l-1.2-0.1z" id="path21"/>
			<path style="fill:#000000;stroke:none;" d="M56.9,38.8v-0.1c0-0.3-0.1-0.5-0.4-0.8c-0.2-0.2-0.5-0.4-0.8-0.4v1.2l1.2,0.1z" id="path23"/>
			<path style="fill:#000000;stroke:none;" d="M55.7,81.3c-0.4-0.1-0.6,0.1-0.9,0.4c-0.2,0.1-0.4,0.4-0.3,0.7l1.2,0.1v-1.2z" id="path25"/>
			<path style="fill:#000000;stroke:none;" d="M55.7,81.3v1.2l1.2,0.1v-0.1c0-0.3-0.1-0.5-0.4-0.8c-0.2-0.2-0.5-0.4-0.8-0.4z" id="path27"/>
			<path style="fill:#000000;stroke:none;" d="M56.6,83.4c0.2-0.2,0.3-0.5,0.3-0.8l-1.2-0.1l0.1,1.3c0.3,0,0.6-0.1,0.8-0.4z" id="path29"/>
			<path style="fill:#000000;stroke:none;" d="M55.8,83.8l-0.1-1.3l-1.2-0.1c0,0.1,0,0.1,0,0.1c0,0.3,0.1,0.6,0.3,0.9c0.3,0.2,0.6,0.3,0.9,0.4h0.1z" id="path31"/>
			<path style="fill:#000000;stroke:none;" d="M83.7,124.9c-0.1,0-0.1,0-0.1,0v1.2l1.2,0.1v-0.1c0-0.3-0.1-0.5-0.4-0.8c-0.2-0.2-0.5-0.4-0.7-0.4z" id="path33"/>
			<path style="fill:#000000;stroke:none;" d="M84.5,127c0.2-0.2,0.3-0.4,0.3-0.7v-0.1l-1.2-0.1l0.1,1.3c0.3-0.1,0.6-0.2,0.8-0.4z" id="path35"/>
			<path style="fill:#000000;stroke:none;" d="M82.4,126.1c0,0.3,0.1,0.6,0.3,0.9c0.3,0.2,0.6,0.3,0.9,0.4h0.1l-0.1-1.3l-1.2-0.1c0,0.1,0,0.1,0,0.1z" id="path37"/>
			<path style="fill:#000000;stroke:none;" d="M82.7,125.2c-0.2,0.2-0.4,0.5-0.3,0.8l1.2,0.1v-1.2c-0.4-0.1-0.6,0.1-0.9,0.3z" id="path39"/>
			<path style="fill:#000000;stroke:none;" d="M160.1,37.6c-0.4,0-0.6,0.1-0.9,0.4c-0.2,0.2-0.3,0.4-0.3,0.7v0.1l1.2,0.1v-1.3z" id="path41"/>
			<path style="fill:#000000;stroke:none;" d="M160.9,38.1c-0.2-0.3-0.5-0.4-0.8-0.5v1.3h1.2c0-0.1,0-0.1,0-0.2c0-0.2-0.2-0.5-0.4-0.6z" id="path43"/>
			<path style="fill:#000000;stroke:none;" d="M160.2,40.1c0.3,0,0.6-0.1,0.8-0.3c0.2-0.3,0.3-0.6,0.3-0.9h-1.2l0.1,1.2z" id="path45"/>
			<path style="fill:#000000;stroke:none;" d="M160.2,40.1l-0.1-1.2l-1.2-0.1c0,0,0,0,0,0.1c0,0.3,0.1,0.6,0.3,0.8c0.3,0.3,0.6,0.4,0.9,0.4h0.1z" id="path47"/>
			<path style="fill:#000000;stroke:none;" d="M139.2,60.8c-0.2-0.2-0.5-0.4-0.9-0.4l0.1,1.3h1.2c0-0.4-0.1-0.6-0.4-0.9z" id="path49"/>
			<path style="fill:#000000;stroke:none;" d="M138.4,61.7l-0.1-1.3c-0.3-0.1-0.5,0.1-0.8,0.3c-0.2,0.2-0.4,0.5-0.3,0.8l1.2,0.2z" id="path51"/>
			<path style="fill:#000000;stroke:none;" d="M137.2,61.5c0,0.1,0,0.1,0,0.2c0,0.2,0.1,0.5,0.3,0.8c0.3,0.2,0.6,0.3,0.9,0.4h0.1l-0.1-1.2l-1.2-0.2z" id="path53"/>
			<path style="fill:#000000;stroke:none;" d="M138.5,62.9c0.3,0,0.6-0.1,0.8-0.4c0.2-0.2,0.3-0.5,0.3-0.8h-1.2l0.1,1.2z" id="path55"/>
			<path style="fill:#000000;stroke:none;" d="M139.2,104.4c-0.3-0.2-0.5-0.4-0.8-0.4c-0.1,0-0.1,0-0.1,0v1.2l1.3,0.1v-0.1c-0.1-0.3-0.2-0.5-0.4-0.8z" id="path57"/>
			<path style="fill:#000000;stroke:none;" d="M138.3,104c-0.3-0.1-0.6,0.1-0.8,0.3c-0.3,0.2-0.4,0.5-0.4,0.8l1.2,0.1V104z" id="path59"/>
			<path style="fill:#000000;stroke:none;" d="M137.1,105.2c0,0.3,0.1,0.6,0.4,0.9c0.2,0.2,0.5,0.3,0.8,0.4h0.1l-0.1-1.3l-1.2-0.1c0,0.1,0,0.1,0,0.1z" id="path61"/>
			<path style="fill:#000000;stroke:none;" d="M139.3,106.1c0.1-0.2,0.2-0.4,0.3-0.7v-0.1l-1.3-0.1l0.1,1.3c0.4-0.1,0.6-0.2,0.9-0.4z" id="path63"/>
			<path style="fill:#000000;stroke:none;" d="M159,149c0,0.3,0.1,0.6,0.4,0.9c0.2,0.2,0.5,0.3,0.9,0.4V149h-0.1l-1.2-0.1c0,0.1,0,0.1,0,0.1z" id="path65"/>
			<path style="fill:#000000;stroke:none;" d="M159.4,148.1c-0.3,0.2-0.4,0.5-0.4,0.8l1.2,0.1h0.1l-0.1-1.2c-0.4,0-0.6,0.1-0.8,0.3z" id="path67"/>
			<path style="fill:#000000;stroke:none;" d="M160.3,147.8c0,0,0,0-0.1,0l0.1,1.2l1.2,0.1V149c-0.1-0.3-0.2-0.5-0.4-0.8c-0.3-0.2-0.5-0.4-0.8-0.4z" id="path69"/>
			<path style="fill:#000000;stroke:none;" d="M161.2,149.9c0.1-0.2,0.2-0.4,0.3-0.7v-0.1l-1.2-0.1v1.3c0.4-0.1,0.6-0.2,0.9-0.4z" id="path71"/>
			<path style="fill:#000000;stroke:none;" d="M84.6,171c0.2-0.2,0.3-0.5,0.3-0.8l-1.2-0.1v1.3c0.4,0,0.6-0.1,0.9-0.4z" id="path73"/>
			<path style="fill:#000000;stroke:none;" d="M84.9,170.1c-0.1-0.3-0.2-0.5-0.4-0.8c-0.3-0.2-0.5-0.4-0.8-0.4h-0.1l0.1,1.2l1.2,0.1v-0.1z" id="path75"/>
			<path style="fill:#000000;stroke:none;" d="M83.6,168.9c-0.3-0.1-0.6,0.1-0.8,0.3c-0.3,0.2-0.4,0.5-0.4,0.8l1.3,0.1l-0.1-1.2z" id="path77"/>
			<path style="fill:#000000;stroke:none;" d="M82.8,171c0.2,0.2,0.5,0.3,0.9,0.4v-1.3l-1.3-0.1c0,0.1,0,0.1,0,0.1c0,0.3,0.1,0.6,0.4,0.9z" id="path79"/>
			<path style="fill:#000000;stroke:none;" d="M55.7,191.8v1.3h1.2c0-0.4-0.1-0.6-0.4-0.9c-0.2-0.2-0.5-0.4-0.8-0.4z" id="path81"/>
			<path style="fill:#000000;stroke:none;" d="M55.7,193.1v-1.3c-0.4-0.1-0.6,0.1-0.9,0.3c-0.2,0.2-0.4,0.5-0.3,0.8l1.2,0.2z" id="path83"/>
			<path style="fill:#000000;stroke:none;" d="M55.7,193.1l-1.2-0.2c0,0.1,0,0.1,0,0.2c0,0.2,0.1,0.5,0.3,0.8c0.3,0.2,0.6,0.3,0.9,0.4h0.1l-0.1-1.2z" id="path85"/>
			<path style="fill:#000000;stroke:none;" d="M56.9,193.1h-1.2l0.1,1.2c0.3,0,0.6-0.1,0.8-0.4c0.2-0.2,0.3-0.5,0.3-0.8z" id="path87"/>
			<path style="fill:#000000;stroke:none;" d="M361.6,143.5v-0.8c-3.5,0-7,0-10.5,0v0.8h10.5z" id="path149"/>
			<path style="fill:#000000;stroke:none;" d="M344.8,143.5v-0.8c-3.5,0-7,0-10.5,0v0.8h10.5z" id="path151"/>
			<path style="fill:#000000;stroke:none;" d="M348.6,151.4c0-0.2-0.1-0.4-0.3-0.5c-0.1-0.2-0.3-0.2-0.5-0.2c-0.2,0-0.4,0-0.5,0.2c-0.2,0.1-0.2,0.3-0.2,0.5c0,0.2,0,0.4,0.2,0.5c0.1,0.2,0.3,0.3,0.5,0.3c0.2,0,0.4-0.1,0.5-0.3c0.2-0.1,0.3-0.3,0.3-0.5z" id="path153"/>
			<path style="fill:#000000;stroke:none;" d="M334.3,162.2v0.7h10.5v-0.7c-3.5,0-7,0-10.5,0z" id="path155"/>
			<path style="fill:#000000;stroke:none;" d="M348.3,169.3c-0.1-0.2-0.3-0.2-0.5-0.2c-0.2,0-0.4,0-0.5,0.2c-0.2,0.1-0.2,0.3-0.2,0.5c0,0.2,0,0.4,0.2,0.5c0.1,0.2,0.3,0.3,0.5,0.3c0.2,0,0.4-0.1,0.5-0.3c0.2-0.1,0.3-0.3,0.3-0.5c0-0.2-0.1-0.4-0.3-0.5z" id="path157"/>
			<path style="fill:#000000;stroke:none;" d="M361.6,181.7v-0.8c-3.5,0-7,0-10.5,0v0.8h10.5z" id="path159"/>
			<path style="fill:#000000;stroke:none;" d="M348.3,188.6c0.2-0.2,0.3-0.3,0.3-0.5c0-0.2-0.1-0.4-0.3-0.6c-0.1-0.1-0.3-0.2-0.5-0.2c-0.2,0-0.4,0.1-0.5,0.2c-0.2,0.2-0.2,0.4-0.2,0.6c0,0.2,0,0.3,0.2,0.5c0.1,0.1,0.3,0.2,0.5,0.2c0.2,0,0.4-0.1,0.5-0.2z" id="path161"/>
			<path style="fill:#000000;stroke:none;" d="M347.7,207.1c0.2-0.2,0.3-0.3,0.3-0.5c0-0.2-0.1-0.4-0.3-0.6c-0.1-0.1-0.3-0.2-0.5-0.2c-0.2,0-0.4,0.1-0.5,0.2c-0.2,0.2-0.2,0.4-0.2,0.6c0,0.2,0,0.3,0.2,0.5c0.1,0.1,0.3,0.2,0.5,0.2c0.2,0,0.4-0.1,0.5-0.2z" id="path163"/>
			<path style="fill:#000000;stroke:none;" d="M299.3,36.9c0,0,0.1,0,0.1,0.1c0.1,0,0.1,0.1,0.2,0.2c0,0.1,0,0.3,0,0.7v2.8c0,0.3,0,0.5,0,0.5c-0.1,0.1-0.2,0.1-0.2,0.2c-0.1,0-0.2,0-0.5,0v0.2h2v-0.2c-0.3,0-0.5,0-0.5,0c-0.1-0.1-0.1-0.1-0.1-0.2c-0.1-0.1-0.1-0.3-0.1-0.5v-4.4h-0.1     l-1.3,0.6l0.1,0.1c0.1,0,0.3-0.1,0.4-0.1z" id="path165"/>
			<path style="fill:#000000;stroke:none;" d="M297.8,40.6v-0.2c-0.4,0-0.6-0.1-0.7-0.3c-0.2-0.1-0.4-0.4-0.7-1l-2.7-6.6h-0.3l-2.7,6.5c-0.3,0.6-0.5,1-0.7,1.2c-0.1,0.1-0.3,0.2-0.6,0.2v0.2h2.5v-0.2c-0.5,0-0.7-0.1-0.8-0.2c-0.1-0.1-0.2-0.2-0.2-0.3s0.1-0.4,0.3-0.7l0.5-1.2h3.1     l0.4,1.1c0.2,0.4,0.2,0.7,0.2,0.8c0,0.2,0,0.3-0.1,0.4c-0.1,0-0.4,0.1-0.6,0.1v0.2h3.1z M291.9,37.5l1.4-3.2l1.3,3.2h-2.7z" id="path167"/>
			<path style="fill:#000000;stroke:none;" d="M295.6,51.8c-0.3,0-0.5,0.1-0.7,0.2c-0.3,0.2-0.6,0.5-0.7,1c-0.2,0.4-0.3,0.9-0.3,1.5c0,0.7,0.2,1.3,0.4,1.7c0.4,0.6,0.8,1,1.3,1c0.2,0,0.5-0.2,0.7-0.4c0.3-0.2,0.5-0.5,0.6-0.9c0.2-0.4,0.3-0.9,0.3-1.5c0-0.9-0.2-1.5-0.5-2     c-0.4-0.4-0.8-0.6-1.1-0.6z M294.8,53.2c0-0.4,0.1-0.7,0.3-1c0.2-0.1,0.3-0.2,0.5-0.2c0.1,0,0.3,0.1,0.3,0.1c0.2,0.2,0.3,0.4,0.4,0.7c0.1,0.3,0.2,0.8,0.2,1.4c0,0.8-0.1,1.4-0.2,1.9c0,0.3-0.2,0.5-0.4,0.6c-0.1,0.1-0.2,0.2-0.3,0.2c-0.3,0-0.5-0.2-0.7-0.6     c-0.1-0.4-0.2-1-0.2-1.7c0-0.5,0-0.9,0.1-1.4z" id="path169"/>
			<path style="fill:#000000;stroke:none;" d="M296.7,67.8c-0.4-0.4-0.8-0.6-1.1-0.6c-0.3,0-0.5,0.1-0.7,0.3c-0.3,0.2-0.6,0.5-0.7,0.9c-0.2,0.4-0.3,0.9-0.3,1.5c0,0.8,0.2,1.3,0.4,1.8c0.4,0.6,0.8,0.9,1.3,0.9c0.2,0,0.5-0.1,0.7-0.3c0.3-0.2,0.5-0.5,0.6-0.9c0.2-0.5,0.3-1,0.3-1.6     c0-0.8-0.2-1.5-0.5-2z M294.8,68.7c0-0.5,0.1-0.8,0.3-1c0.2-0.2,0.3-0.2,0.5-0.2c0.1,0,0.3,0,0.3,0.1c0.2,0.1,0.3,0.3,0.4,0.6c0.1,0.4,0.2,0.9,0.2,1.5c0,0.8-0.1,1.4-0.2,1.8c0,0.3-0.2,0.5-0.4,0.7c-0.1,0.1-0.2,0.1-0.3,0.1c-0.3,0-0.5-0.1-0.7-0.5     c-0.1-0.5-0.2-1.1-0.2-1.8c0-0.4,0-0.8,0.1-1.3z" id="path171"/>
			<path style="fill:#000000;stroke:none;" d="M312.7,82.7c-0.3,0-0.5,0.1-0.7,0.2c-0.3,0.2-0.6,0.5-0.7,1c-0.2,0.4-0.3,0.9-0.3,1.5c0,0.7,0.2,1.3,0.4,1.7c0.4,0.6,0.8,0.9,1.3,0.9c0.2,0,0.5-0.1,0.7-0.3c0.3-0.2,0.5-0.5,0.7-0.9c0.1-0.4,0.2-0.9,0.2-1.5c0-0.9-0.2-1.5-0.5-2     c-0.4-0.4-0.7-0.6-1.1-0.6z M313.1,83c0.1,0.2,0.2,0.4,0.3,0.7c0.2,0.3,0.2,0.8,0.2,1.4c0,0.8,0,1.4-0.2,1.9c0,0.3-0.2,0.5-0.3,0.6c-0.2,0.1-0.3,0.2-0.4,0.2c-0.3,0-0.5-0.2-0.7-0.6c-0.1-0.4-0.2-1-0.2-1.7c0-0.5,0-0.9,0.1-1.4c0-0.4,0.2-0.7,0.3-1     c0.2-0.1,0.3-0.2,0.5-0.2c0.1,0,0.3,0.1,0.4,0.1z" id="path173"/>
			<path style="fill:#000000;stroke:none;" d="M313,98.1h-0.1l-1.3,0.6l0.1,0.1c0.1,0,0.3-0.1,0.4-0.1c0,0,0.1,0,0.2,0.1c0,0,0,0.1,0.1,0.2c0,0.1,0,0.3,0,0.7v2.8c0,0.3,0,0.5,0,0.5c-0.1,0.1-0.1,0.1-0.2,0.2c-0.1,0-0.2,0-0.5,0v0.2h2v-0.2c-0.3,0-0.4,0-0.5,0c-0.1-0.1-0.1-0.1-0.1-0.2     c-0.1-0.1-0.1-0.3-0.1-0.5v-4.4z" id="path175"/>
			<path style="fill:#000000;stroke:none;" d="M294.5,83.3l0.1,0.1c0.1-0.1,0.3-0.1,0.3-0.1c0.1,0,0.2,0,0.3,0c0,0.1,0,0.1,0.1,0.2c0,0.1,0,0.4,0,0.7V87c0,0.3,0,0.5,0,0.6c-0.1,0-0.1,0.1-0.2,0.1c-0.1,0.1-0.2,0.1-0.5,0.1v0.1h2v-0.1c-0.3,0-0.4,0-0.5-0.1c-0.1,0-0.2-0.1-0.2-0.1     c0-0.1,0-0.3,0-0.6v-4.3h-0.1l-1.3,0.6z" id="path177"/>
			<path style="fill:#000000;stroke:none;" d="M294.5,98.7l0.1,0.1c0.1,0,0.3-0.1,0.3-0.1c0.1,0,0.2,0,0.3,0.1c0,0,0,0.1,0.1,0.2c0,0.1,0,0.3,0,0.7v2.8c0,0.3,0,0.5,0,0.5c-0.1,0.1-0.1,0.1-0.2,0.2c-0.1,0-0.2,0-0.5,0v0.2h2v-0.2c-0.3,0-0.4,0-0.5,0c-0.1-0.1-0.2-0.1-0.2-0.2     s0-0.3,0-0.5v-4.4h-0.1l-1.3,0.6z" id="path179"/>
			<path style="fill:#000000;stroke:none;" d="M328.8,52c-0.3,0.2-0.6,0.5-0.7,1c-0.2,0.4-0.3,0.9-0.3,1.5c0,0.7,0.2,1.3,0.4,1.7c0.4,0.6,0.8,1,1.3,1c0.2,0,0.5-0.2,0.7-0.4c0.3-0.2,0.5-0.5,0.7-0.9c0.1-0.4,0.2-0.9,0.2-1.5c0-0.9-0.2-1.5-0.5-2c-0.4-0.4-0.7-0.6-1.1-0.6     c-0.3,0-0.5,0.1-0.7,0.2z M328.8,56.3c-0.1-0.4-0.2-1-0.2-1.7c0-0.5,0-0.9,0.1-1.4c0-0.4,0.2-0.7,0.3-1c0.2-0.1,0.3-0.2,0.5-0.2c0.1,0,0.3,0.1,0.4,0.1c0.1,0.2,0.2,0.4,0.3,0.7c0.2,0.3,0.2,0.8,0.2,1.4c0,0.8,0,1.4-0.2,1.9c0,0.3-0.2,0.5-0.3,0.6     c-0.2,0.1-0.3,0.2-0.4,0.2c-0.3,0-0.5-0.2-0.7-0.6z" id="path181"/>
			<path style="fill:#000000;stroke:none;" d="M330.6,67.8c-0.4-0.4-0.7-0.6-1.1-0.6c-0.3,0-0.5,0.1-0.7,0.3c-0.3,0.2-0.6,0.5-0.7,0.9c-0.2,0.4-0.3,0.9-0.3,1.5c0,0.8,0.2,1.3,0.4,1.8c0.4,0.6,0.8,0.9,1.3,0.9c0.2,0,0.5-0.1,0.7-0.3c0.3-0.2,0.5-0.5,0.7-0.9c0.1-0.5,0.2-1,0.2-1.6     c0-0.8-0.2-1.5-0.5-2z M328.7,68.7c0-0.5,0.2-0.8,0.3-1c0.2-0.2,0.3-0.2,0.5-0.2c0.1,0,0.3,0,0.4,0.1s0.2,0.3,0.3,0.6c0.2,0.4,0.2,0.9,0.2,1.5c0,0.8,0,1.4-0.2,1.8c0,0.3-0.2,0.5-0.3,0.7c-0.2,0.1-0.3,0.1-0.4,0.1c-0.3,0-0.5-0.1-0.7-0.5     c-0.1-0.5-0.2-1.1-0.2-1.8c0-0.4,0-0.8,0.1-1.3z" id="path183"/>
			<path style="fill:#000000;stroke:none;" d="M318.1,36.9c-0.4-0.4-0.7-0.6-1.1-0.6c-0.3,0-0.5,0.1-0.7,0.3c-0.3,0.2-0.6,0.5-0.7,0.9c-0.2,0.4-0.3,0.9-0.3,1.5c0,0.7,0.2,1.3,0.4,1.8c0.4,0.6,0.8,0.9,1.3,0.9c0.2,0,0.5-0.1,0.7-0.3c0.3-0.2,0.5-0.5,0.7-0.9c0.1-0.5,0.2-1,0.2-1.6     c0-0.8-0.2-1.5-0.5-2z M317.4,36.7c0.1,0.1,0.2,0.3,0.3,0.6c0.2,0.4,0.2,0.9,0.2,1.5c0,0.8,0,1.4-0.2,1.8c0,0.3-0.2,0.5-0.3,0.6c-0.2,0.2-0.3,0.2-0.4,0.2c-0.3,0-0.5-0.2-0.7-0.5c-0.1-0.5-0.2-1.1-0.2-1.8c0-0.4,0-0.9,0.1-1.3c0-0.5,0.2-0.8,0.3-1     c0.2-0.2,0.3-0.2,0.5-0.2c0.1,0,0.3,0,0.4,0.1z" id="path185"/>
			<path style="fill:#000000;stroke:none;" d="M314.9,40.6v-0.2c-0.3,0-0.6-0.1-0.7-0.3c-0.2-0.1-0.4-0.4-0.7-1l-2.7-6.6h-0.2l-2.8,6.5c-0.3,0.6-0.5,1-0.7,1.2c-0.1,0.1-0.3,0.2-0.7,0.2v0.2h2.5v-0.2c-0.3,0-0.6-0.1-0.7-0.2c-0.1-0.1-0.1-0.2-0.1-0.3s0-0.4,0.2-0.7l0.5-1.2h3.1l0.4,1.1     c0.2,0.4,0.3,0.7,0.3,0.8c0,0.2-0.1,0.3-0.2,0.4c-0.1,0-0.3,0.1-0.6,0.1v0.2h3.1z M310.4,34.3l1.3,3.2h-2.8l1.5-3.2z" id="path187"/>
			<path style="fill:#000000;stroke:none;" d="M313.8,52.4c-0.4-0.4-0.7-0.6-1.1-0.6c-0.3,0-0.5,0.1-0.7,0.2c-0.3,0.2-0.6,0.5-0.7,1c-0.2,0.4-0.3,0.9-0.3,1.5c0,0.7,0.2,1.3,0.4,1.7c0.4,0.6,0.8,1,1.3,1c0.2,0,0.5-0.2,0.7-0.4c0.3-0.2,0.5-0.5,0.7-0.9c0.1-0.4,0.2-0.9,0.2-1.5     c0-0.9-0.2-1.5-0.5-2z M311.9,53.2c0-0.4,0.2-0.7,0.3-1c0.2-0.1,0.3-0.2,0.5-0.2c0.1,0,0.3,0.1,0.4,0.1c0.1,0.2,0.2,0.4,0.3,0.7c0.2,0.3,0.2,0.8,0.2,1.4c0,0.8,0,1.4-0.2,1.9c0,0.3-0.2,0.5-0.3,0.6c-0.2,0.1-0.3,0.2-0.4,0.2c-0.3,0-0.5-0.2-0.7-0.6     c-0.1-0.4-0.2-1-0.2-1.7c0-0.5,0-0.9,0.1-1.4z" id="path189"/>
			<path style="fill:#000000;stroke:none;" d="M311.6,67.8l0.1,0.1c0.1,0,0.3-0.1,0.4-0.1c0,0,0.1,0,0.2,0.1c0,0,0,0.1,0.1,0.2c0,0.1,0,0.3,0,0.7v2.8c0,0.3,0,0.5,0,0.6c-0.1,0-0.1,0-0.2,0.1c-0.1,0-0.2,0-0.5,0v0.2h2v-0.2c-0.3,0-0.4,0-0.5,0c-0.1-0.1-0.1-0.1-0.1-0.1     c-0.1-0.2-0.1-0.4-0.1-0.6v-4.4h-0.1l-1.3,0.6z" id="path191"/>
			<path style="fill:#000000;stroke:none;" d="M330.6,83.3c-0.4-0.4-0.7-0.6-1.1-0.6c-0.3,0-0.5,0.1-0.7,0.2c-0.3,0.2-0.6,0.5-0.7,1c-0.2,0.4-0.3,0.9-0.3,1.5c0,0.7,0.2,1.3,0.4,1.7c0.4,0.6,0.8,0.9,1.3,0.9c0.2,0,0.5-0.1,0.7-0.3c0.3-0.2,0.5-0.5,0.7-0.9c0.1-0.4,0.2-0.9,0.2-1.5     c0-0.9-0.2-1.5-0.5-2z M329.9,83c0.1,0.2,0.2,0.4,0.3,0.7c0.2,0.3,0.2,0.8,0.2,1.4c0,0.8,0,1.4-0.2,1.9c0,0.3-0.2,0.5-0.3,0.6c-0.2,0.1-0.3,0.2-0.4,0.2c-0.3,0-0.5-0.2-0.7-0.6c-0.1-0.4-0.2-1-0.2-1.7c0-0.5,0-0.9,0.1-1.4c0-0.4,0.2-0.7,0.3-1     c0.2-0.1,0.3-0.2,0.5-0.2c0.1,0,0.3,0.1,0.4,0.1z" id="path193"/>
			<path style="fill:#000000;stroke:none;" d="M329.8,98.1h-0.1l-1.3,0.6l0.1,0.1c0.1,0,0.3-0.1,0.4-0.1c0,0,0.1,0,0.2,0.1c0,0,0,0.1,0.1,0.2c0,0.1,0,0.3,0,0.7v2.8c0,0.3,0,0.5,0,0.5c-0.1,0.1-0.1,0.1-0.2,0.2c-0.1,0-0.2,0-0.5,0v0.2h2v-0.2c-0.3,0-0.4,0-0.5,0     c-0.1-0.1-0.1-0.1-0.1-0.2c-0.1-0.1-0.1-0.3-0.1-0.5v-4.4z" id="path195"/>
			<path style="fill:#000000;stroke:none;" d="M334.8,37.4c0-0.3-0.1-0.5-0.2-0.7c-0.3-0.2-0.6-0.4-1-0.4c-0.3,0-0.6,0.1-0.8,0.3c-0.3,0.2-0.4,0.4-0.6,0.8l0.1,0.1c0.3-0.5,0.6-0.7,1-0.7c0.3,0,0.5,0.1,0.6,0.3c0.2,0.1,0.3,0.3,0.3,0.6c0,0.2-0.1,0.4-0.1,0.6c-0.1,0.1-0.3,0.3-0.5,0.4     c-0.2,0.1-0.4,0.2-0.6,0.2V39h0.1c0.2,0,0.4,0.1,0.6,0.1c0.2,0.1,0.3,0.2,0.5,0.3c0,0.1,0.1,0.2,0.2,0.3c0.1,0.2,0.1,0.4,0.1,0.6c0,0.3-0.1,0.5-0.3,0.7c-0.2,0.2-0.4,0.3-0.6,0.3c-0.2,0-0.3,0-0.4,0c0,0-0.1-0.1-0.3-0.1c-0.1-0.1-0.2-0.2-0.3-0.2c0,0-0.1,0-0.2,0     c0,0-0.1,0-0.2,0.1c0,0-0.1,0.1-0.1,0.2c0,0.1,0.1,0.2,0.2,0.2c0.2,0.1,0.4,0.2,0.7,0.2c0.7,0,1.3-0.2,1.7-0.7c0.2-0.3,0.4-0.7,0.4-1.1s-0.1-0.6-0.3-0.9c-0.1-0.2-0.4-0.3-0.7-0.5c0.5-0.4,0.7-0.8,0.7-1.1z" id="path197"/>
			<path style="fill:#000000;stroke:none;" d="M331.4,36.6c0-0.8-0.2-1.5-0.6-2.2c-0.3-0.6-0.8-1.1-1.5-1.3c-0.6-0.3-1.5-0.4-2.7-0.4h-3.2v0.2h0.3c0.3,0,0.5,0.1,0.7,0.3c0.1,0.1,0.1,0.4,0.1,0.9v5.1c0,0.5,0,0.7-0.1,0.9c-0.2,0.2-0.4,0.3-0.7,0.3h-0.3v0.2h3.5c1.6,0,2.7-0.4,3.5-1.2     c0.6-0.8,1-1.7,1-2.8z M326.8,33.1c1,0,1.8,0.3,2.4,1c0.5,0.6,0.8,1.5,0.8,2.6c0,1.1-0.3,1.9-0.8,2.6c-0.6,0.6-1.4,0.9-2.3,0.9c-0.4,0-0.8,0-1.3-0.1v-6.8c0.5-0.1,0.9-0.2,1.2-0.2z" id="path199"/>
			<path style="fill:#000000;stroke:none;" d="M347.2,98.7c-0.4-0.4-0.7-0.6-1.1-0.6c-0.3,0-0.5,0.1-0.7,0.3c-0.3,0.2-0.6,0.5-0.7,0.9c-0.2,0.4-0.3,0.9-0.3,1.5c0,0.7,0.2,1.3,0.4,1.8c0.4,0.6,0.8,0.9,1.3,0.9c0.2,0,0.5-0.1,0.7-0.3c0.3-0.2,0.5-0.5,0.7-0.9c0.1-0.5,0.2-1,0.2-1.6     c0-0.8-0.2-1.5-0.5-2z M346.5,98.5c0.1,0.1,0.2,0.3,0.3,0.6c0.2,0.4,0.2,0.9,0.2,1.5c0,0.8,0,1.4-0.2,1.8c0,0.3-0.2,0.5-0.3,0.6c-0.2,0.2-0.3,0.2-0.4,0.2c-0.3,0-0.5-0.2-0.7-0.5c-0.1-0.5-0.2-1.1-0.2-1.8c0-0.4,0-0.9,0.1-1.3c0-0.5,0.2-0.8,0.3-1     c0.2-0.2,0.3-0.2,0.5-0.2c0.1,0,0.3,0,0.4,0.1z" id="path201"/>
			<path style="fill:#000000;stroke:none;" d="M350,36.9c0.3,0,0.5,0.1,0.7,0.3c0.2,0.2,0.3,0.5,0.3,0.8c0,0.5-0.2,0.9-0.5,1.4c-0.4,0.6-1,1.2-1.9,2v0.2h3l0.4-1h-0.1c-0.1,0.1-0.2,0.2-0.3,0.2c-0.1,0.1-0.2,0.1-0.3,0.2c-0.1,0-0.3,0-0.5,0h-1.4c0.2-0.2,0.5-0.6,1.2-1.2     c0.4-0.5,0.7-0.9,0.9-1.4c0.1-0.2,0.2-0.5,0.2-0.7c0-0.4-0.2-0.7-0.4-1c-0.3-0.2-0.7-0.4-1.1-0.4c-0.4,0-0.7,0.1-1,0.4c-0.2,0.2-0.4,0.6-0.5,1.1h0.2c0.1-0.3,0.2-0.5,0.4-0.7c0.2-0.1,0.5-0.2,0.7-0.2z" id="path203"/>
			<path style="fill:#000000;stroke:none;" d="M348,36.6c0-0.8-0.2-1.5-0.6-2.2c-0.3-0.6-0.8-1.1-1.5-1.3c-0.6-0.3-1.5-0.4-2.7-0.4H340v0.2h0.3c0.3,0,0.5,0.1,0.7,0.3c0.1,0.1,0.1,0.4,0.1,0.9v5.1c0,0.5,0,0.7-0.1,0.9c-0.2,0.2-0.4,0.3-0.7,0.3H340v0.2h3.5c1.6,0,2.7-0.4,3.5-1.2     c0.6-0.8,1-1.7,1-2.8z M345.8,34.1c0.5,0.6,0.8,1.5,0.8,2.6c0,1.1-0.3,1.9-0.8,2.6c-0.6,0.6-1.4,0.9-2.3,0.9c-0.4,0-0.8,0-1.3-0.1v-6.8c0.5-0.1,0.9-0.2,1.2-0.2c1,0,1.8,0.3,2.4,1z" id="path205"/>
			<path style="fill:#000000;stroke:none;" d="M346.1,51.8c-0.3,0-0.5,0.1-0.7,0.2c-0.3,0.2-0.6,0.5-0.7,1c-0.2,0.4-0.3,0.9-0.3,1.5c0,0.7,0.2,1.3,0.4,1.7c0.4,0.6,0.8,1,1.3,1c0.2,0,0.5-0.2,0.7-0.4c0.3-0.2,0.5-0.5,0.7-0.9c0.1-0.4,0.2-0.9,0.2-1.5c0-0.9-0.2-1.5-0.5-2     c-0.4-0.4-0.7-0.6-1.1-0.6z M345.3,53.2c0-0.4,0.2-0.7,0.3-1c0.2-0.1,0.3-0.2,0.5-0.2c0.1,0,0.3,0.1,0.4,0.1c0.1,0.2,0.2,0.4,0.3,0.7c0.2,0.3,0.2,0.8,0.2,1.4c0,0.8,0,1.4-0.2,1.9c0,0.3-0.2,0.5-0.3,0.6c-0.2,0.1-0.3,0.2-0.4,0.2c-0.3,0-0.5-0.2-0.7-0.6     c-0.1-0.4-0.2-1-0.2-1.7c0-0.5,0-0.9,0.1-1.4z" id="path207"/>
			<path style="fill:#000000;stroke:none;" d="M361.6,67.8l0.1,0.1c0.1,0,0.3-0.1,0.4-0.1c0,0,0.1,0,0.2,0.1c0,0,0,0.1,0.1,0.2c0,0.1,0,0.3,0,0.7v2.8c0,0.3,0,0.5,0,0.6c-0.1,0-0.1,0-0.2,0.1c-0.1,0-0.2,0-0.5,0v0.2h2v-0.2c-0.3,0-0.4,0-0.5,0c-0.1-0.1-0.1-0.1-0.1-0.1     c-0.1-0.2-0.1-0.4-0.1-0.6v-4.4h-0.1l-1.3,0.6z" id="path209"/>
			<path style="fill:#000000;stroke:none;" d="M345.4,67.5c-0.3,0.2-0.6,0.5-0.7,0.9c-0.2,0.4-0.3,0.9-0.3,1.5c0,0.8,0.2,1.3,0.4,1.8c0.4,0.6,0.8,0.9,1.3,0.9c0.2,0,0.5-0.1,0.7-0.3c0.3-0.2,0.5-0.5,0.7-0.9c0.1-0.5,0.2-1,0.2-1.6c0-0.8-0.2-1.5-0.5-2c-0.4-0.4-0.7-0.6-1.1-0.6     c-0.3,0-0.5,0.1-0.7,0.3z M346.5,67.6c0.1,0.1,0.2,0.3,0.3,0.6c0.2,0.4,0.2,0.9,0.2,1.5c0,0.8,0,1.4-0.2,1.8c0,0.3-0.2,0.5-0.3,0.7c-0.2,0.1-0.3,0.1-0.4,0.1c-0.3,0-0.5-0.1-0.7-0.5c-0.1-0.5-0.2-1.1-0.2-1.8c0-0.4,0-0.8,0.1-1.3c0-0.5,0.2-0.8,0.3-1     c0.2-0.2,0.3-0.2,0.5-0.2c0.1,0,0.3,0,0.4,0.1z" id="path211"/>
			<path style="fill:#000000;stroke:none;" d="M363.8,83.3c-0.4-0.4-0.7-0.6-1.1-0.6c-0.3,0-0.5,0.1-0.7,0.2c-0.3,0.2-0.6,0.5-0.7,1c-0.2,0.4-0.3,0.9-0.3,1.5c0,0.7,0.2,1.3,0.4,1.7c0.4,0.6,0.8,0.9,1.3,0.9c0.2,0,0.5-0.1,0.7-0.3c0.3-0.2,0.5-0.5,0.7-0.9c0.1-0.4,0.2-0.9,0.2-1.5     c0-0.9-0.2-1.5-0.5-2z M363.1,83c0.1,0.2,0.2,0.4,0.3,0.7c0.2,0.3,0.2,0.8,0.2,1.4c0,0.8,0,1.4-0.2,1.9c0,0.3-0.2,0.5-0.3,0.6c-0.2,0.1-0.3,0.2-0.4,0.2c-0.3,0-0.5-0.2-0.7-0.6c-0.1-0.4-0.2-1-0.2-1.7c0-0.5,0-0.9,0.1-1.4c0-0.4,0.2-0.7,0.3-1     c0.2-0.1,0.3-0.2,0.5-0.2c0.1,0,0.3,0.1,0.4,0.1z" id="path213"/>
			<path style="fill:#000000;stroke:none;" d="M346.3,82.7l-1.3,0.6l0.1,0.1c0.1-0.1,0.3-0.1,0.4-0.1c0,0,0.1,0,0.2,0c0,0.1,0,0.1,0.1,0.2c0,0.1,0,0.4,0,0.7V87c0,0.3,0,0.5,0,0.6c-0.1,0-0.1,0.1-0.2,0.1c-0.1,0.1-0.2,0.1-0.5,0.1v0.1h2v-0.1c-0.3,0-0.4,0-0.5-0.1     c-0.1,0-0.1-0.1-0.1-0.1c-0.1-0.1-0.1-0.3-0.1-0.6v-4.3h-0.1z" id="path215"/>
			<path style="fill:#000000;stroke:none;" d="M362,98.4c-0.3,0.2-0.6,0.5-0.7,0.9c-0.2,0.4-0.3,0.9-0.3,1.5c0,0.7,0.2,1.3,0.4,1.8c0.4,0.6,0.8,0.9,1.3,0.9c0.2,0,0.5-0.1,0.7-0.3c0.3-0.2,0.5-0.5,0.7-0.9c0.1-0.5,0.2-1,0.2-1.6c0-0.8-0.2-1.5-0.5-2c-0.4-0.4-0.7-0.6-1.1-0.6     c-0.3,0-0.5,0.1-0.7,0.3z M361.9,99.6c0-0.5,0.2-0.8,0.3-1c0.2-0.2,0.3-0.2,0.5-0.2c0.1,0,0.3,0,0.4,0.1s0.2,0.3,0.3,0.6c0.2,0.4,0.2,0.9,0.2,1.5c0,0.8,0,1.4-0.2,1.8c0,0.3-0.2,0.5-0.3,0.6c-0.2,0.2-0.3,0.2-0.4,0.2c-0.3,0-0.5-0.2-0.7-0.5     c-0.1-0.5-0.2-1.1-0.2-1.8c0-0.4,0-0.9,0.1-1.3z" id="path217"/>
			<path style="fill:#000000;stroke:none;" d="M363.8,52.4c-0.4-0.4-0.7-0.6-1.1-0.6c-0.3,0-0.5,0.1-0.7,0.2c-0.3,0.2-0.6,0.5-0.7,1c-0.2,0.4-0.3,0.9-0.3,1.5c0,0.7,0.2,1.3,0.4,1.7c0.4,0.6,0.8,1,1.3,1c0.2,0,0.5-0.2,0.7-0.4c0.3-0.2,0.5-0.5,0.7-0.9c0.1-0.4,0.2-0.9,0.2-1.5     c0-0.9-0.2-1.5-0.5-2z M362.7,52c0.1,0,0.3,0.1,0.4,0.1c0.1,0.2,0.2,0.4,0.3,0.7c0.2,0.3,0.2,0.8,0.2,1.4c0,0.8,0,1.4-0.2,1.9c0,0.3-0.2,0.5-0.3,0.6c-0.2,0.1-0.3,0.2-0.4,0.2c-0.3,0-0.5-0.2-0.7-0.6c-0.1-0.4-0.2-1-0.2-1.7c0-0.5,0-0.9,0.1-1.4     c0-0.4,0.2-0.7,0.3-1c0.2-0.1,0.3-0.2,0.5-0.2z" id="path219"/>
			<path style="fill:#000000;stroke:none;" d="M380.7,36.6c0-0.8-0.2-1.5-0.6-2.2c-0.3-0.6-0.8-1.1-1.5-1.3c-0.6-0.3-1.5-0.4-2.7-0.4h-3.2v0.2h0.3c0.3,0,0.5,0.1,0.7,0.3c0.1,0.1,0.1,0.4,0.1,0.9v5.1c0,0.5,0,0.7-0.1,0.9c-0.2,0.2-0.4,0.3-0.7,0.3h-0.3v0.2h3.5c1.6,0,2.7-0.4,3.5-1.2     c0.6-0.8,1-1.7,1-2.8z M378.5,34.1c0.5,0.6,0.8,1.5,0.8,2.6c0,1.1-0.3,1.9-0.8,2.6c-0.6,0.6-1.4,0.9-2.3,0.9c-0.4,0-0.8,0-1.3-0.1v-6.8c0.5-0.1,0.9-0.2,1.2-0.2c1,0,1.8,0.3,2.4,1z" id="path221"/>
			<path style="fill:#000000;stroke:none;" d="M382.4,36.6c-0.3,0.2-0.6,0.5-0.7,0.9c-0.2,0.4-0.3,0.9-0.3,1.5c0,0.7,0.2,1.3,0.4,1.8c0.4,0.6,0.8,0.9,1.3,0.9c0.2,0,0.5-0.1,0.7-0.3c0.3-0.2,0.5-0.5,0.7-0.9c0.1-0.5,0.2-1,0.2-1.6c0-0.8-0.2-1.5-0.5-2c-0.4-0.4-0.7-0.6-1.1-0.6     c-0.3,0-0.5,0.1-0.7,0.3z M382.3,37.8c0-0.5,0.2-0.8,0.3-1c0.2-0.2,0.3-0.2,0.5-0.2c0.1,0,0.3,0,0.4,0.1c0.1,0.1,0.2,0.3,0.3,0.6c0.2,0.4,0.2,0.9,0.2,1.5c0,0.8,0,1.4-0.2,1.8c0,0.3-0.2,0.5-0.3,0.6c-0.2,0.2-0.3,0.2-0.4,0.2c-0.3,0-0.5-0.2-0.7-0.5     c-0.1-0.5-0.2-1.1-0.2-1.8c0-0.4,0-0.9,0.1-1.3z" id="path223"/>
			<path style="fill:#000000;stroke:none;" d="M367.3,36.3h-0.1l-1.3,0.6L366,37c0.1,0,0.3-0.1,0.4-0.1c0,0,0.1,0,0.2,0.1c0,0,0,0.1,0.1,0.2c0,0.1,0,0.3,0,0.7v2.8c0,0.3,0,0.5,0,0.5c-0.1,0.1-0.1,0.1-0.2,0.2c-0.1,0-0.2,0-0.5,0v0.2h2v-0.2c-0.3,0-0.4,0-0.5,0c-0.1-0.1-0.1-0.1-0.1-0.2     c-0.1-0.1-0.1-0.3-0.1-0.5v-4.4z" id="path225"/>
			<path style="fill:#000000;stroke:none;" d="M379,51.8l-1.3,0.6l0.1,0.1c0.1-0.1,0.3-0.1,0.4-0.1c0,0,0.1,0,0.2,0c0,0.1,0,0.1,0.1,0.2c0,0.1,0,0.4,0,0.7v2.8c0,0.3,0,0.5,0,0.6c-0.1,0-0.1,0.1-0.2,0.1c-0.1,0.1-0.2,0.1-0.5,0.1V57h2v-0.1c-0.3,0-0.4,0-0.5-0.1c-0.1,0-0.1-0.1-0.1-0.1     c-0.1-0.1-0.1-0.3-0.1-0.6v-4.3H379z" id="path227"/>
			<path style="fill:#000000;stroke:none;" d="M378.1,67.5c-0.3,0.2-0.6,0.5-0.7,0.9c-0.2,0.4-0.3,0.9-0.3,1.5c0,0.8,0.2,1.3,0.4,1.8c0.4,0.6,0.8,0.9,1.3,0.9c0.2,0,0.5-0.1,0.7-0.3c0.3-0.2,0.5-0.5,0.7-0.9c0.1-0.5,0.2-1,0.2-1.6c0-0.8-0.2-1.5-0.5-2c-0.4-0.4-0.7-0.6-1.1-0.6     c-0.3,0-0.5,0.1-0.7,0.3z M379.2,67.6c0.1,0.1,0.2,0.3,0.3,0.6c0.2,0.4,0.2,0.9,0.2,1.5c0,0.8,0,1.4-0.2,1.8c0,0.3-0.2,0.5-0.3,0.7c-0.2,0.1-0.3,0.1-0.4,0.1c-0.3,0-0.5-0.1-0.7-0.5c-0.1-0.5-0.2-1.1-0.2-1.8c0-0.4,0-0.8,0.1-1.3c0-0.5,0.2-0.8,0.3-1     c0.2-0.2,0.3-0.2,0.5-0.2c0.1,0,0.3,0,0.4,0.1z" id="path229"/>
			<path style="fill:#000000;stroke:none;" d="M380.2,86.8c0.1-0.4,0.2-0.9,0.2-1.5c0-0.9-0.2-1.5-0.5-2c-0.4-0.4-0.7-0.6-1.1-0.6c-0.3,0-0.5,0.1-0.7,0.2c-0.3,0.2-0.6,0.5-0.7,1c-0.2,0.4-0.3,0.9-0.3,1.5c0,0.7,0.2,1.3,0.4,1.7c0.4,0.6,0.8,0.9,1.3,0.9c0.2,0,0.5-0.1,0.7-0.3     c0.3-0.2,0.5-0.5,0.7-0.9z M379.2,83c0.1,0.2,0.2,0.4,0.3,0.7c0.2,0.3,0.2,0.8,0.2,1.4c0,0.8,0,1.4-0.2,1.9c0,0.3-0.2,0.5-0.3,0.6c-0.2,0.1-0.3,0.2-0.4,0.2c-0.3,0-0.5-0.2-0.7-0.6c-0.1-0.4-0.2-1-0.2-1.7c0-0.5,0-0.9,0.1-1.4c0-0.4,0.2-0.7,0.3-1     c0.2-0.1,0.3-0.2,0.5-0.2c0.1,0,0.3,0.1,0.4,0.1z" id="path231"/>
			<path style="fill:#000000;stroke:none;" d="M378.1,98.4c-0.3,0.2-0.6,0.5-0.7,0.9c-0.2,0.4-0.3,0.9-0.3,1.5c0,0.7,0.2,1.3,0.4,1.8c0.4,0.6,0.8,0.9,1.3,0.9c0.2,0,0.5-0.1,0.7-0.3c0.3-0.2,0.5-0.5,0.7-0.9c0.1-0.5,0.2-1,0.2-1.6c0-0.8-0.2-1.5-0.5-2c-0.4-0.4-0.7-0.6-1.1-0.6     c-0.3,0-0.5,0.1-0.7,0.3z M378,99.6c0-0.5,0.2-0.8,0.3-1c0.2-0.2,0.3-0.2,0.5-0.2c0.1,0,0.3,0,0.4,0.1c0.1,0.1,0.2,0.3,0.3,0.6c0.2,0.4,0.2,0.9,0.2,1.5c0,0.8,0,1.4-0.2,1.8c0,0.3-0.2,0.5-0.3,0.6c-0.2,0.2-0.3,0.2-0.4,0.2c-0.3,0-0.5-0.2-0.7-0.5     c-0.1-0.5-0.2-1.1-0.2-1.8c0-0.4,0-0.9,0.1-1.3z" id="path233"/>
			<path style="fill:#000000;stroke:none;" d="M364.6,36.6c0-0.8-0.2-1.5-0.6-2.2c-0.3-0.6-0.8-1.1-1.5-1.3c-0.6-0.3-1.5-0.4-2.7-0.4h-3.2v0.2h0.3c0.3,0,0.5,0.1,0.7,0.3c0.1,0.1,0.1,0.4,0.1,0.9v5.1c0,0.5,0,0.7-0.1,0.9c-0.2,0.2-0.4,0.3-0.7,0.3h-0.3v0.2h3.5c1.6,0,2.7-0.4,3.5-1.2     c0.6-0.8,1-1.7,1-2.8z M360,33.1c1,0,1.8,0.3,2.4,1c0.5,0.6,0.8,1.5,0.8,2.6c0,1.1-0.3,1.9-0.8,2.6c-0.6,0.6-1.4,0.9-2.3,0.9c-0.4,0-0.8,0-1.3-0.1v-6.8c0.5-0.1,0.9-0.2,1.2-0.2z" id="path235"/>


			<path style="fill:#000000;stroke:none;" d="M265.3,49.9c-0.3,0-0.5,0.1-0.8,0.3c-0.3,0.2-0.6,0.5-0.7,0.9c-0.2,0.5-0.3,1-0.3,1.6c0,0.8,0.2,1.4,0.4,1.9c0.4,0.6,0.8,0.9,1.3,0.9c0.2,0,0.6-0.1,0.8-0.3c0.3-0.2,0.5-0.5,0.7-1c0.2-0.4,0.2-0.9,0.2-1.6c0-0.8-0.1-1.5-0.5-2.1     c-0.4-0.4-0.7-0.6-1.1-0.6z M264.8,50.4c0.1-0.1,0.3-0.2,0.5-0.2c0.1,0,0.2,0,0.4,0.1c0.1,0.1,0.2,0.3,0.3,0.6c0.2,0.5,0.2,1,0.2,1.6c0,0.8,0,1.4-0.2,1.9c-0.1,0.3-0.2,0.5-0.3,0.6c-0.2,0.2-0.3,0.2-0.5,0.2c-0.3,0-0.5-0.2-0.6-0.6c-0.2-0.4-0.3-1-0.3-1.8     c0-0.4,0-0.9,0.1-1.4c0-0.4,0.2-0.8,0.4-1z" id="path257"/>
			<path style="fill:#000000;stroke:none;" d="M262.2,47.9c-0.4-0.6-0.9-1.1-1.5-1.4c-0.7-0.2-1.6-0.4-2.9-0.4h-3.3v0.2h0.3c0.3,0,0.6,0.1,0.7,0.3c0.1,0.2,0.2,0.5,0.2,1v5.3c0,0.5-0.1,0.8-0.2,0.9c-0.1,0.2-0.4,0.3-0.7,0.3h-0.3v0.3h3.7c1.6,0,2.7-0.5,3.6-1.3c0.6-0.8,1-1.7,1-2.9     c0-0.8-0.2-1.6-0.6-2.3z M260.5,47.6c0.6,0.6,0.9,1.5,0.9,2.7c0,1.1-0.3,2-0.9,2.7c-0.6,0.6-1.4,0.9-2.4,0.9c-0.3,0-0.7,0-1.3-0.1v-7c0.5-0.2,0.9-0.2,1.3-0.2c1,0,1.8,0.3,2.4,1z" id="path259"/>
			<path style="fill:#000000;stroke:none;" d="M15.3,38.7c-0.3,0.2-0.5,0.5-0.7,1c-0.2,0.4-0.3,1-0.3,1.6c0,0.7,0.2,1.3,0.4,1.8c0.4,0.6,0.8,0.9,1.3,0.9c0.3,0,0.6-0.1,0.8-0.3c0.3-0.2,0.5-0.5,0.7-0.9c0.2-0.5,0.3-1,0.3-1.6c0-0.9-0.2-1.6-0.6-2.1c-0.4-0.4-0.7-0.6-1.1-0.6     c-0.3,0-0.5,0.1-0.8,0.2z M15.1,41.4c0-0.5,0-1,0.1-1.4c0-0.5,0.2-0.8,0.4-1c0.1-0.2,0.3-0.3,0.5-0.3c0.1,0,0.2,0.1,0.4,0.1c0.1,0.2,0.2,0.4,0.3,0.7C17,39.9,17,40.4,17,41c0,0.9,0,1.5-0.2,1.9c0,0.3-0.2,0.5-0.3,0.7c-0.2,0.1-0.3,0.2-0.5,0.2     c-0.3,0-0.5-0.2-0.6-0.6c-0.2-0.5-0.3-1.1-0.3-1.8z" id="path261"/>
			<path style="fill:#000000;stroke:none;" d="M10.8,40.2l0.5,1.1c0.1,0.4,0.2,0.7,0.2,0.9c0,0.1,0,0.2-0.2,0.3c-0.1,0.1-0.3,0.2-0.6,0.2v0.2h3.2v-0.2c-0.3,0-0.6-0.1-0.7-0.3c-0.2-0.1-0.4-0.5-0.7-1.1l-2.9-6.8H9.4l-2.9,6.8c-0.2,0.6-0.4,1-0.7,1.2c-0.1,0.1-0.3,0.1-0.6,0.2v0.2h2.6     v-0.2c-0.4,0-0.7-0.1-0.8-0.2s-0.2-0.2-0.2-0.3c0-0.2,0.1-0.4,0.2-0.7l0.6-1.3h3.2z M7.8,39.7l1.4-3.3l1.4,3.3H7.8z" id="path263"/>
			<path style="fill:#000000;stroke:none;" d="M265.6,93.7h-0.2l-1.2,0.6v0.2c0.2-0.1,0.3-0.2,0.4-0.2s0.2,0,0.2,0.1c0.1,0,0.1,0.1,0.1,0.2s0,0.3,0,0.7v2.9c0,0.4,0,0.6,0,0.6c0,0.1-0.1,0.1-0.1,0.2c-0.1,0-0.3,0-0.5,0v0.2h2V99c-0.3,0-0.4,0-0.5,0c-0.1-0.1-0.1-0.1-0.2-0.2     c0-0.1,0-0.3,0-0.6v-4.5z" id="path265"/>
			<path style="fill:#000000;stroke:none;" d="M255.5,90.4c0.1,0.2,0.2,0.5,0.2,1v5.3c0,0.5-0.1,0.8-0.2,0.9c-0.1,0.2-0.4,0.3-0.7,0.3h-0.3v0.3h3.7c1.6,0,2.7-0.5,3.6-1.3c0.6-0.8,1-1.7,1-2.9c0-0.8-0.2-1.6-0.6-2.3c-0.4-0.6-0.9-1.1-1.5-1.4c-0.7-0.2-1.6-0.4-2.9-0.4h-3.3v0.2h0.3     c0.3,0,0.6,0.1,0.7,0.3z M256.8,90.6c0.5-0.2,0.9-0.2,1.3-0.2c1,0,1.8,0.3,2.4,1c0.6,0.6,0.9,1.5,0.9,2.7c0,1.1-0.3,2-0.9,2.7c-0.6,0.6-1.4,0.9-2.4,0.9c-0.3,0-0.7,0-1.3-0.1v-7z" id="path267"/>
			<path style="fill:#000000;stroke:none;" d="M266.4,139.7c0.2-0.2,0.2-0.5,0.2-0.7c0-0.5-0.2-0.8-0.4-1c-0.3-0.3-0.7-0.5-1.1-0.5s-0.8,0.1-1,0.4c-0.3,0.2-0.5,0.6-0.5,1.1h0.1c0.1-0.3,0.2-0.5,0.5-0.7c0.2-0.1,0.4-0.2,0.7-0.2c0.3,0,0.5,0.1,0.7,0.4c0.2,0.2,0.3,0.5,0.3,0.8     c0,0.4-0.2,0.9-0.5,1.4c-0.5,0.6-1.1,1.3-2,2.1v0.2h3.2l0.3-1h-0.1c-0.1,0.1-0.2,0.2-0.2,0.2c-0.2,0.1-0.2,0.1-0.4,0.1c-0.1,0.1-0.3,0.1-0.6,0.1h-1.4c0.2-0.2,0.6-0.6,1.2-1.3c0.5-0.5,0.8-0.9,1-1.4z" id="path269"/>
			<path style="fill:#000000;stroke:none;" d="M262.2,135.5c-0.4-0.6-0.9-1-1.5-1.4c-0.7-0.2-1.6-0.4-2.9-0.4h-3.3v0.3h0.3c0.3,0,0.6,0,0.7,0.2c0.1,0.2,0.2,0.5,0.2,1v5.3c0,0.5-0.1,0.8-0.2,1c-0.1,0.1-0.4,0.2-0.7,0.2h-0.3v0.3h3.7c1.6,0,2.7-0.5,3.6-1.3c0.6-0.7,1-1.7,1-2.9     c0-0.8-0.2-1.6-0.6-2.3z M256.8,134.4c0.5-0.2,0.9-0.2,1.3-0.2c1,0,1.8,0.3,2.4,1c0.6,0.6,0.9,1.5,0.9,2.7c0,1.1-0.3,2.1-0.9,2.7s-1.4,0.9-2.4,0.9c-0.3,0-0.7,0-1.3-0.1v-7z" id="path271"/>
			<path style="fill:#000000;stroke:none;" d="M266.1,181.7c-0.3-0.2-0.6-0.4-1-0.4s-0.7,0.1-0.9,0.3c-0.3,0.2-0.4,0.5-0.6,0.8l0.2,0.1c0.2-0.5,0.6-0.7,1-0.7c0.2,0,0.5,0.1,0.6,0.3c0.2,0.1,0.3,0.4,0.3,0.6c0,0.3-0.1,0.5-0.2,0.6c-0.1,0.2-0.2,0.3-0.4,0.5c-0.2,0.1-0.4,0.2-0.7,0.2v0.1     h0.2c0.2,0,0.3,0.1,0.6,0.1c0.2,0.1,0.3,0.2,0.5,0.3c0,0.1,0.1,0.2,0.2,0.4c0,0.2,0.1,0.4,0.1,0.6c0,0.3-0.1,0.5-0.3,0.7c-0.2,0.2-0.4,0.3-0.7,0.3c-0.1,0-0.2,0-0.3,0c0,0-0.2-0.1-0.3-0.2c-0.2,0-0.3-0.1-0.3-0.1c-0.1,0-0.2,0-0.2,0c-0.1,0-0.2,0-0.3,0     c0,0.1,0,0.2,0,0.2c0,0.2,0,0.3,0.2,0.3c0.1,0.1,0.3,0.2,0.6,0.2c0.8,0,1.4-0.2,1.8-0.7c0.2-0.3,0.4-0.8,0.4-1.2c0-0.3-0.1-0.6-0.3-0.8c-0.1-0.3-0.4-0.5-0.7-0.6c0.5-0.4,0.7-0.8,0.7-1.2c0-0.3-0.1-0.5-0.2-0.7z" id="path273"/>
			<path style="fill:#000000;stroke:none;" d="M15.8,61.4h-0.2L14.3,62l0.1,0.2c0.1-0.2,0.3-0.2,0.4-0.2c0,0,0.1,0,0.2,0c0,0.1,0,0.2,0.1,0.2c0,0.1,0,0.4,0,0.8v2.9c0,0.3,0,0.5,0,0.6c-0.1,0-0.1,0.1-0.2,0.2c-0.1,0-0.2,0-0.5,0v0.1h2v-0.1c-0.2,0-0.4,0-0.4,0c-0.1-0.1-0.2-0.2-0.2-0.3     c0,0,0-0.2,0-0.5v-4.5z" id="path275"/>
			<path style="fill:#000000;stroke:none;" d="M13.3,65.8v-0.2c-0.4,0-0.6-0.1-0.8-0.3c-0.2-0.1-0.4-0.5-0.6-1.1L9,57.4H8.8l-2.9,6.8c-0.3,0.6-0.5,1-0.7,1.2c-0.1,0.1-0.3,0.1-0.7,0.2v0.2h2.6v-0.2c-0.4,0-0.6-0.1-0.8-0.2c-0.1-0.1-0.1-0.2-0.1-0.3c0-0.2,0-0.4,0.2-0.7l0.5-1.3h3.2     l0.5,1.1c0.2,0.5,0.3,0.7,0.3,0.9c0,0.1-0.1,0.2-0.2,0.3c-0.1,0.1-0.3,0.2-0.7,0.2v0.2h3.3z M10,62.7H7.1l1.4-3.4l1.5,3.4z" id="path277"/>
			<path style="fill:#000000;stroke:none;" d="M257.8,177.5h-3.3v0.2h0.3c0.3,0,0.6,0.2,0.7,0.3c0.1,0.2,0.2,0.5,0.2,1v5.3c0,0.5-0.1,0.8-0.2,0.9c-0.1,0.2-0.4,0.3-0.7,0.3h-0.3v0.3h3.7c1.6,0,2.7-0.5,3.6-1.3c0.6-0.8,1-1.7,1-2.9c0-0.8-0.2-1.6-0.6-2.3c-0.4-0.6-0.9-1.1-1.5-1.4     c-0.7-0.2-1.6-0.4-2.9-0.4z M256.8,178.2c0.5-0.2,0.9-0.2,1.3-0.2c1,0,1.8,0.4,2.4,1s0.9,1.5,0.9,2.7c0,1.1-0.3,2-0.9,2.7c-0.6,0.6-1.4,0.9-2.4,0.9c-0.3,0-0.7,0-1.3-0.1v-7z" id="path279"/>
			<path style="fill:#000000;stroke:none;" d="M361,148.9c-0.3,0-0.5,0.1-0.7,0.2c-0.3,0.2-0.6,0.5-0.7,1c-0.2,0.4-0.3,0.9-0.3,1.5c0,0.7,0.2,1.3,0.4,1.7c0.4,0.6,0.8,0.9,1.3,0.9c0.2,0,0.5-0.1,0.7-0.3c0.3-0.2,0.5-0.5,0.7-0.9c0.1-0.4,0.2-0.9,0.2-1.5c0-0.9-0.2-1.5-0.5-2     c-0.4-0.4-0.7-0.6-1.1-0.6z M360.5,149.3c0.2-0.1,0.3-0.2,0.5-0.2c0.1,0,0.3,0.1,0.4,0.1c0.1,0.2,0.2,0.4,0.3,0.7c0.2,0.3,0.2,0.8,0.2,1.4c0,0.8,0,1.4-0.2,1.9c0,0.3-0.2,0.5-0.3,0.6c-0.2,0.1-0.3,0.2-0.4,0.2c-0.3,0-0.5-0.2-0.7-0.6c-0.1-0.4-0.2-1-0.2-1.7     c0-0.5,0-0.9,0.1-1.4c0-0.4,0.2-0.7,0.3-1z" id="path281"/>
			<path style="fill:#000000;stroke:none;" d="M352.3,151.8l0.5-1.3h3.1l0.4,1.2c0.2,0.3,0.3,0.6,0.3,0.8c0,0.1-0.1,0.2-0.2,0.3c-0.1,0.1-0.3,0.1-0.6,0.2v0.2h3.1V153c-0.3-0.1-0.6-0.2-0.7-0.3c-0.2-0.2-0.4-0.5-0.7-1l-2.7-6.7h-0.2l-2.8,6.6c-0.3,0.5-0.5,0.9-0.7,1.1     c-0.1,0.1-0.3,0.2-0.6,0.3v0.2h2.5V153c-0.4-0.1-0.7-0.1-0.8-0.2c-0.1-0.1-0.1-0.2-0.1-0.3c0-0.2,0-0.4,0.2-0.7z M353,150.1l1.4-3.2l1.3,3.2H353z" id="path283"/>
			<path style="fill:#000000;stroke:none;" d="M344.9,148.9h-0.2l-1.2,0.6v0.1c0.2-0.1,0.3-0.1,0.4-0.1s0.2,0,0.2,0c0.1,0.1,0.1,0.1,0.1,0.2c0,0.1,0,0.4,0,0.7v2.8c0,0.3,0,0.5,0,0.6l-0.1,0.1c-0.1,0.1-0.3,0.1-0.5,0.1v0.1h1.9V154c-0.2,0-0.4,0-0.4-0.1c-0.1,0-0.2-0.1-0.2-0.1     c0-0.1,0-0.3,0-0.6v-4.3z" id="path285"/>
			<path style="fill:#000000;stroke:none;" d="M327.7,152v0.3h4.1V152h-4.1z" id="path287"/>
			<path style="fill:#000000;stroke:none;" d="M327.7,150.8v0.3h4.1v-0.3h-4.1z" id="path289"/>
			<path style="fill:#000000;stroke:none;" d="M325.1,153c0.1-0.4,0.2-0.9,0.2-1.5c0-0.9-0.2-1.5-0.5-2c-0.4-0.4-0.7-0.6-1.1-0.6c-0.3,0-0.5,0.1-0.7,0.2c-0.3,0.2-0.6,0.5-0.7,1c-0.2,0.4-0.3,0.9-0.3,1.5c0,0.7,0.2,1.3,0.4,1.7c0.4,0.6,0.8,0.9,1.3,0.9c0.2,0,0.5-0.1,0.7-0.3     c0.3-0.2,0.5-0.5,0.7-0.9z M324.6,151.3c0,0.8,0,1.4-0.2,1.9c0,0.3-0.2,0.5-0.3,0.6c-0.2,0.1-0.3,0.2-0.4,0.2c-0.3,0-0.5-0.2-0.7-0.6c-0.1-0.4-0.2-1-0.2-1.7c0-0.5,0-0.9,0.1-1.4c0-0.4,0.2-0.7,0.3-1c0.2-0.1,0.3-0.2,0.5-0.2c0.1,0,0.3,0.1,0.4,0.1     c0.1,0.2,0.2,0.4,0.3,0.7c0.2,0.3,0.2,0.8,0.2,1.4z" id="path291"/>
			<path style="fill:#000000;stroke:none;" d="M334,153v0.2h2.5V153c-0.4-0.1-0.6-0.1-0.7-0.2c-0.1-0.1-0.2-0.2-0.2-0.3c0-0.2,0.1-0.4,0.2-0.7l0.5-1.3h3.1l0.5,1.2c0.1,0.3,0.2,0.6,0.2,0.8c0,0.1,0,0.2-0.1,0.3c-0.2,0.1-0.4,0.1-0.7,0.2v0.2h3.2V153c-0.4-0.1-0.6-0.2-0.8-0.3     c-0.2-0.2-0.4-0.5-0.6-1l-2.8-6.7h-0.2l-2.8,6.6c-0.2,0.5-0.4,0.9-0.6,1.1c-0.1,0.1-0.3,0.2-0.7,0.3z M339.3,150.1h-2.8l1.4-3.2l1.4,3.2z" id="path293"/>
			<path style="fill:#000000;stroke:none;" d="M343.5,168.3c0.2,0,0.3-0.1,0.4-0.1s0.2,0,0.2,0.1c0.1,0,0.1,0.1,0.1,0.2s0,0.3,0,0.7v2.8c0,0.3,0,0.5,0,0.5c0,0.1-0.1,0.1-0.1,0.2c-0.1,0-0.3,0-0.5,0v0.2h1.9v-0.2c-0.2,0-0.4,0-0.4,0c-0.1-0.1-0.2-0.1-0.2-0.2s0-0.3,0-0.5v-4.4h-0.2     l-1.2,0.6v0.1z" id="path295"/>
			<path style="fill:#000000;stroke:none;" d="M362.1,168.2c-0.4-0.4-0.7-0.6-1.1-0.6c-0.3,0-0.5,0.1-0.7,0.3c-0.3,0.2-0.6,0.5-0.7,0.9c-0.2,0.4-0.3,0.9-0.3,1.5c0,0.7,0.2,1.3,0.4,1.8c0.4,0.6,0.8,0.9,1.3,0.9c0.2,0,0.5-0.1,0.7-0.3c0.3-0.2,0.5-0.5,0.7-0.9c0.1-0.5,0.2-1,0.2-1.6     c0-0.8-0.2-1.5-0.5-2z M360.5,168.1c0.2-0.2,0.3-0.2,0.5-0.2c0.1,0,0.3,0,0.4,0.1s0.2,0.3,0.3,0.6c0.2,0.4,0.2,0.9,0.2,1.5c0,0.8,0,1.4-0.2,1.8c0,0.3-0.2,0.5-0.3,0.6c-0.2,0.2-0.3,0.2-0.4,0.2c-0.3,0-0.5-0.2-0.7-0.5c-0.1-0.5-0.2-1.1-0.2-1.8     c0-0.4,0-0.9,0.1-1.3c0-0.5,0.2-0.8,0.3-1z" id="path297"/>
			<path style="fill:#000000;stroke:none;" d="M352.3,170.5l0.5-1.2h3.1l0.4,1.1c0.2,0.4,0.3,0.7,0.3,0.8c0,0.2-0.1,0.3-0.2,0.4c-0.1,0-0.3,0.1-0.6,0.1v0.2h3.1v-0.2c-0.3,0-0.6-0.1-0.7-0.3c-0.2-0.1-0.4-0.4-0.7-1l-2.7-6.6h-0.2l-2.8,6.5c-0.3,0.6-0.5,1-0.7,1.2     c-0.1,0.1-0.3,0.2-0.6,0.2v0.2h2.5v-0.2c-0.4,0-0.7-0.1-0.8-0.2c-0.1-0.1-0.1-0.2-0.1-0.3c0-0.1,0-0.4,0.2-0.7z M354.4,165.6l1.3,3.2H353l1.4-3.2z" id="path299"/>
			<path style="fill:#000000;stroke:none;" d="M313.3,153v0.2h3.5c1.6,0,2.7-0.4,3.5-1.3c0.6-0.7,1-1.6,1-2.7c0-0.9-0.2-1.6-0.6-2.2c-0.3-0.7-0.8-1.1-1.5-1.4c-0.6-0.2-1.5-0.4-2.7-0.4h-3.2v0.3h0.3c0.3,0,0.5,0,0.7,0.2c0.1,0.1,0.1,0.4,0.1,0.9v5.2c0,0.4,0,0.7-0.1,0.8     c-0.2,0.3-0.4,0.4-0.7,0.4h-0.3z M316.7,145.7c1,0,1.8,0.3,2.4,0.9c0.5,0.7,0.8,1.5,0.8,2.6c0,1.1-0.3,2-0.8,2.6c-0.6,0.7-1.4,1-2.3,1c-0.4,0-0.8-0.1-1.3-0.2v-6.8c0.5-0.1,0.9-0.1,1.2-0.1z" id="path301"/>
			<path style="fill:#000000;stroke:none;" d="M338.3,163.8h-0.2l-2.8,6.5c-0.2,0.6-0.4,1-0.6,1.2c-0.1,0.1-0.3,0.2-0.7,0.2v0.2h2.5v-0.2c-0.4,0-0.6-0.1-0.7-0.2c-0.1-0.1-0.2-0.2-0.2-0.3c0-0.1,0.1-0.4,0.2-0.7l0.5-1.2h3.1l0.5,1.1c0.1,0.4,0.2,0.7,0.2,0.8c0,0.2,0,0.3-0.1,0.4     c-0.2,0-0.4,0.1-0.7,0.1v0.2h3.2v-0.2c-0.4,0-0.6-0.1-0.8-0.3c-0.2-0.1-0.4-0.4-0.6-1l-2.8-6.6z M339.3,168.8h-2.8l1.4-3.2l1.4,3.2z" id="path303"/>
			<path style="fill:#000000;stroke:none;" d="M331.8,169.8v-0.3h-4.1v0.3h4.1z" id="path305"/>
			<path style="fill:#000000;stroke:none;" d="M331.8,171.1v-0.3h-4.1v0.3h4.1z" id="path307"/>
			<path style="fill:#000000;stroke:none;" d="M324.7,172.9v-0.2c-0.3,0-0.4,0-0.5,0c-0.1-0.1-0.1-0.1-0.1-0.2c-0.1-0.1-0.1-0.3-0.1-0.5v-4.4h-0.1l-1.3,0.6l0.1,0.1c0.1,0,0.3-0.1,0.4-0.1c0,0,0.1,0,0.2,0.1c0,0,0,0.1,0.1,0.2c0,0.1,0,0.3,0,0.7v2.8c0,0.3,0,0.5,0,0.5     c-0.1,0.1-0.1,0.1-0.2,0.2c-0.1,0-0.2,0-0.5,0v0.2h2z" id="path309"/>
			<path style="fill:#000000;stroke:none;" d="M319.2,164.4c-0.6-0.3-1.5-0.4-2.7-0.4h-3.2v0.2h0.3c0.3,0,0.5,0.1,0.7,0.3c0.1,0.1,0.1,0.4,0.1,0.9v5.1c0,0.5,0,0.7-0.1,0.9c-0.2,0.2-0.4,0.3-0.7,0.3h-0.3v0.2h3.5c1.6,0,2.7-0.4,3.5-1.2c0.6-0.8,1-1.7,1-2.8c0-0.8-0.2-1.5-0.6-2.2     c-0.3-0.6-0.8-1.1-1.5-1.3z M316.7,164.4c1,0,1.8,0.3,2.4,1c0.5,0.6,0.8,1.5,0.8,2.6s-0.3,1.9-0.8,2.6c-0.6,0.6-1.4,0.9-2.3,0.9c-0.4,0-0.8,0-1.3-0.1v-6.8c0.5-0.1,0.9-0.2,1.2-0.2z" id="path311"/>
			<path style="fill:#000000;stroke:none;" d="M323.5,186.4c-0.4,0-0.7,0.1-1,0.3c-0.2,0.3-0.4,0.7-0.5,1.1h0.2c0.1-0.3,0.2-0.5,0.4-0.6c0.2-0.2,0.5-0.3,0.7-0.3c0.3,0,0.5,0.1,0.7,0.4c0.2,0.2,0.3,0.4,0.3,0.8s-0.2,0.9-0.5,1.4c-0.4,0.5-1,1.2-1.9,2v0.1h3l0.4-1h-0.1     c-0.1,0.2-0.2,0.2-0.3,0.3c-0.1,0-0.2,0.1-0.3,0.1s-0.3,0-0.5,0h-1.4c0.2-0.1,0.5-0.5,1.2-1.2c0.4-0.4,0.7-0.9,0.9-1.3c0.1-0.3,0.2-0.5,0.2-0.8c0-0.3-0.2-0.7-0.4-0.9c-0.3-0.3-0.7-0.4-1.1-0.4z" id="path313"/>
			<path style="fill:#000000;stroke:none;" d="M361,186.4c-0.3,0-0.5,0.1-0.7,0.2c-0.3,0.2-0.6,0.5-0.7,1c-0.2,0.4-0.3,0.9-0.3,1.5c0,0.7,0.2,1.3,0.4,1.7c0.4,0.6,0.8,0.9,1.3,0.9c0.2,0,0.5-0.1,0.7-0.3c0.3-0.2,0.5-0.5,0.7-0.9c0.1-0.4,0.2-0.9,0.2-1.5c0-0.9-0.2-1.5-0.5-2     c-0.4-0.4-0.7-0.6-1.1-0.6z M360.5,186.8c0.2-0.1,0.3-0.2,0.5-0.2c0.1,0,0.3,0.1,0.4,0.1c0.1,0.2,0.2,0.4,0.3,0.7c0.2,0.3,0.2,0.8,0.2,1.4c0,0.8,0,1.4-0.2,1.9c0,0.3-0.2,0.5-0.3,0.6c-0.2,0.1-0.3,0.2-0.4,0.2c-0.3,0-0.5-0.2-0.7-0.6c-0.1-0.4-0.2-1-0.2-1.7     c0-0.5,0-0.9,0.1-1.4c0-0.4,0.2-0.7,0.3-1z" id="path315"/>
			<path style="fill:#000000;stroke:none;" d="M356.3,189.2c0.2,0.3,0.3,0.6,0.3,0.8c0,0.1-0.1,0.2-0.2,0.3c-0.1,0.1-0.3,0.1-0.6,0.2v0.2h3.1v-0.2c-0.3-0.1-0.6-0.2-0.7-0.3c-0.2-0.2-0.4-0.5-0.7-1l-2.7-6.7h-0.2l-2.8,6.6c-0.3,0.5-0.5,0.9-0.7,1.1c-0.1,0.1-0.3,0.2-0.6,0.3v0.2h2.5     v-0.2c-0.4-0.1-0.7-0.1-0.8-0.2c-0.1-0.1-0.1-0.2-0.1-0.3c0-0.2,0-0.4,0.2-0.7l0.5-1.3h3.1l0.4,1.2z M353,187.6l1.4-3.2l1.3,3.2H353z" id="path317"/>
			<path style="fill:#000000;stroke:none;" d="M344.9,186.4h-0.2l-1.2,0.6v0.1c0.2-0.1,0.3-0.1,0.4-0.1s0.2,0,0.2,0c0.1,0.1,0.1,0.1,0.1,0.2c0,0.1,0,0.4,0,0.7v2.8c0,0.3,0,0.5,0,0.6l-0.1,0.1c-0.1,0.1-0.3,0.1-0.5,0.1v0.1h1.9v-0.1c-0.2,0-0.4,0-0.4-0.1c-0.1,0-0.2-0.1-0.2-0.1     c0-0.1,0-0.3,0-0.6v-4.3z" id="path319"/>
			<path style="fill:#000000;stroke:none;" d="M338.3,182.5h-0.2l-2.8,6.6c-0.2,0.5-0.4,0.9-0.6,1.1c-0.1,0.1-0.3,0.2-0.7,0.3v0.2h2.5v-0.2c-0.4-0.1-0.6-0.1-0.7-0.2c-0.1-0.1-0.2-0.2-0.2-0.3c0-0.2,0.1-0.4,0.2-0.7l0.5-1.3h3.1l0.5,1.2c0.1,0.3,0.2,0.6,0.2,0.8c0,0.1,0,0.2-0.1,0.3     c-0.2,0.1-0.4,0.1-0.7,0.2v0.2h3.2v-0.2c-0.4-0.1-0.6-0.2-0.8-0.3c-0.2-0.2-0.4-0.5-0.6-1l-2.8-6.7z M339.3,187.6h-2.8l1.4-3.2l1.4,3.2z" id="path321"/>
			<path style="fill:#000000;stroke:none;" d="M327.7,188.3v0.3h4.1v-0.3h-4.1z" id="path323"/>
			<path style="fill:#000000;stroke:none;" d="M327.7,189.5v0.3h4.1v-0.3h-4.1z" id="path325"/>
			<path style="fill:#000000;stroke:none;" d="M321.3,186.7c0-0.9-0.2-1.6-0.6-2.2c-0.3-0.7-0.8-1.1-1.5-1.4c-0.6-0.2-1.5-0.4-2.7-0.4h-3.2v0.2h0.3c0.3,0,0.5,0.1,0.7,0.3c0.1,0.1,0.1,0.4,0.1,0.9v5.2c0,0.4,0,0.7-0.1,0.8c-0.2,0.3-0.4,0.4-0.7,0.4h-0.3v0.2h3.5c1.6,0,2.7-0.4,3.5-1.3     c0.6-0.7,1-1.6,1-2.7z M316.7,183.2c1,0,1.8,0.3,2.4,0.9c0.5,0.7,0.8,1.5,0.8,2.6c0,1.1-0.3,2-0.8,2.6c-0.6,0.7-1.4,1-2.3,1c-0.4,0-0.8-0.1-1.3-0.2v-6.8c0.5-0.1,0.9-0.1,1.2-0.1z" id="path327"/>
			<path style="fill:#000000;stroke:none;" d="M361,205.1c-0.3,0-0.5,0.1-0.7,0.3c-0.3,0.2-0.6,0.5-0.7,0.9c-0.2,0.4-0.3,0.9-0.3,1.5c0,0.7,0.2,1.3,0.4,1.8c0.4,0.6,0.8,0.9,1.3,0.9c0.2,0,0.5-0.1,0.7-0.3c0.3-0.2,0.5-0.5,0.7-0.9c0.1-0.5,0.2-0.9,0.2-1.6c0-0.8-0.2-1.5-0.5-2     c-0.4-0.4-0.7-0.6-1.1-0.6z M361,205.4c0.1,0,0.3,0,0.4,0.1s0.2,0.3,0.3,0.6c0.2,0.4,0.2,0.9,0.2,1.5c0,0.8,0,1.4-0.2,1.8c0,0.3-0.2,0.5-0.3,0.6c-0.2,0.2-0.3,0.2-0.4,0.2c-0.3,0-0.5-0.2-0.7-0.5c-0.1-0.5-0.2-1.1-0.2-1.8c0-0.4,0-0.9,0.1-1.3     c0-0.5,0.2-0.8,0.3-1c0.2-0.2,0.3-0.2,0.5-0.2z" id="path329"/>
			<path style="fill:#000000;stroke:none;" d="M354.8,201.3h-0.2l-2.8,6.5c-0.3,0.6-0.5,1-0.7,1.2c-0.1,0.1-0.3,0.2-0.6,0.2v0.2h2.5v-0.2c-0.4,0-0.7-0.1-0.8-0.2c-0.1-0.1-0.1-0.2-0.1-0.3c0-0.1,0-0.3,0.2-0.7l0.5-1.2h3.1l0.4,1.1c0.2,0.4,0.3,0.7,0.3,0.8c0,0.2-0.1,0.3-0.2,0.4     c-0.1,0-0.3,0.1-0.6,0.1v0.2h3.1v-0.2c-0.3,0-0.6-0.1-0.7-0.3c-0.2-0.1-0.4-0.4-0.7-1l-2.7-6.6z M355.7,206.3H353l1.4-3.2l1.3,3.2z" id="path331"/>


			<path style="fill:#000000;stroke:none;" d="M313.3,201.5v0.2h0.3c0.3,0,0.5,0.1,0.7,0.3c0.1,0.1,0.1,0.4,0.1,0.9v5.1c0,0.5,0,0.7-0.1,0.9c-0.2,0.2-0.4,0.3-0.7,0.3h-0.3v0.2h3.5c1.6,0,2.7-0.4,3.5-1.2c0.6-0.8,1-1.7,1-2.8c0-0.8-0.2-1.5-0.6-2.2c-0.3-0.6-0.8-1-1.5-1.3     c-0.6-0.2-1.5-0.4-2.7-0.4h-3.2z M316.7,201.9c1,0,1.8,0.3,2.4,1c0.5,0.6,0.8,1.5,0.8,2.6s-0.3,1.9-0.8,2.6c-0.6,0.6-1.4,0.9-2.3,0.9c-0.4,0-0.8,0-1.3-0.1v-6.8c0.5-0.1,0.9-0.2,1.2-0.2z" id="path337"/>
			<path style="fill:#000000;stroke:none;" d="M323.5,205.1c-0.3,0-0.6,0.1-0.8,0.3c-0.3,0.2-0.4,0.4-0.6,0.8l0.1,0.1c0.3-0.5,0.6-0.7,1-0.7c0.3,0,0.5,0.1,0.6,0.3c0.2,0.1,0.3,0.3,0.3,0.6c0,0.2-0.1,0.4-0.1,0.6c-0.1,0.1-0.3,0.3-0.5,0.4s-0.4,0.2-0.6,0.2v0.1h0.1     c0.2,0,0.4,0.1,0.6,0.1c0.2,0.1,0.3,0.2,0.5,0.3c0,0.1,0.1,0.2,0.2,0.3c0.1,0.2,0.1,0.4,0.1,0.6c0,0.3-0.1,0.5-0.3,0.7c-0.2,0.2-0.4,0.3-0.6,0.3s-0.3,0-0.4,0c0,0-0.1-0.1-0.3-0.1c-0.1-0.1-0.2-0.2-0.3-0.2c0,0-0.1,0-0.2,0c0,0-0.1,0-0.2,0.1c0,0-0.1,0.1-0.1,0.2     s0.1,0.2,0.2,0.2c0.2,0.1,0.4,0.2,0.7,0.2c0.7,0,1.3-0.2,1.7-0.7c0.2-0.3,0.4-0.7,0.4-1.1c0-0.3-0.1-0.6-0.3-0.9c-0.1-0.2-0.4-0.3-0.7-0.5c0.5-0.4,0.7-0.8,0.7-1.1c0-0.2-0.1-0.5-0.2-0.7c-0.3-0.2-0.6-0.4-1-0.4z" id="path339"/>
			<path style="fill:#000000;stroke:none;" d="M344.9,205.1h-0.2l-1.2,0.6v0.1c0.2,0,0.3-0.1,0.4-0.1s0.2,0,0.2,0.1c0.1,0,0.1,0.1,0.1,0.2s0,0.3,0,0.7v2.8c0,0.3,0,0.5,0,0.5c0,0.1-0.1,0.1-0.1,0.2c-0.1,0-0.3,0-0.5,0v0.2h1.9v-0.2c-0.2,0-0.4,0-0.4,0c-0.1-0.1-0.2-0.1-0.2-0.2     s0-0.3,0-0.5v-4.4z" id="path341"/>
			<path style="fill:#000000;stroke:none;" d="M338.3,201.3h-0.2l-2.8,6.5c-0.2,0.6-0.4,1-0.6,1.2c-0.1,0.1-0.3,0.2-0.7,0.2v0.2h2.5v-0.2c-0.4,0-0.6-0.1-0.7-0.2c-0.1-0.1-0.2-0.2-0.2-0.3c0-0.1,0.1-0.3,0.2-0.7l0.5-1.2h3.1l0.5,1.1c0.1,0.4,0.2,0.7,0.2,0.8c0,0.2,0,0.3-0.1,0.4     c-0.2,0-0.4,0.1-0.7,0.1v0.2h3.2v-0.2c-0.4,0-0.6-0.1-0.8-0.3c-0.2-0.1-0.4-0.4-0.6-1l-2.8-6.6z M339.3,206.3h-2.8l1.4-3.2l1.4,3.2z" id="path343"/>
			<path style="fill:#000000;stroke:none;" d="M331.8,207.3V207h-4.1v0.3h4.1z" id="path345"/>
			<path style="fill:#000000;stroke:none;" d="M331.8,208.6v-0.3h-4.1v0.3h4.1z" id="path347"/>
			<path d="M248.6,50.2h-21.1h-8.9" id="path381"/>
			<path d="M180.5,61.7v4.2l25.4,0.1c2.7-0.8,5.1-2.2,7.3-4.1c3.5-3.2,5.3-7.2,5.4-11.7" id="path383"/>
			<path d="M218.6,50.2c0-0.1,0-0.1,0-0.1c0-4.7-1.8-8.6-5.4-11.9c-2.2-2-4.6-3.4-7.4-4.1h-25.3v4.6" id="path385"/>
			<path d="M188,15.1h6" id="path387"/>
			<path d="M200,15.1h6" id="path389"/>
			<path d="M212,15.1h6" id="path391"/>
			<path d="M224,15.1h3.5v2.5" id="path393"/>
			<path d="M227.5,23.6v6" id="path395"/>
			<path d="M227.5,35.6v6" id="path397"/>
			<path d="M227.5,47.6v2.6v3.4" id="path399"/>
			<path d="M227.5,59.6v6" id="path401"/>
			<path d="M227.5,71.6v6" id="path403"/>
			<path d="M227.5,83.6v6" id="path405"/>
			<path d="M227.5,95.6v6" id="path407"/>
			<path d="M227.5,107.6v6" id="path409"/>
			<path d="M248.6,94h-21.1h-8.9" id="path411"/>
			<path d="M180.5,105.4v4.3l25.4,0.1c2.7-0.8,5.1-2.2,7.3-4.1c3.5-3.3,5.3-7.2,5.4-11.7" id="path413"/>
			<path d="M218.6,137.8c0-0.1,0-0.1,0-0.1v-0.5c-0.1-4.4-1.9-8.2-5.4-11.4c-2.2-2-4.6-3.4-7.4-4.1h-25.3v4.6" id="path415"/>
			<path d="M218.6,94c0-0.1,0-0.1,0-0.1c0-4.7-1.8-8.6-5.4-11.9c-2.2-2-4.6-3.3-7.4-4.1h-25.3v4.6" id="path417"/>
			<path d="M321.4,44.1h-34.1" id="path419"/>
			<path d="M321.4,44.1v63" id="path421"/>
			<path d="M321.4,44.1V27.9" id="path423"/>
			<path d="M83.6,15.1h-6" id="path425"/>
			<path d="M71.6,15.1h-6" id="path427"/>
			<path d="M59.6,15.1h-6" id="path429"/>
			<path d="M47.6,15.1h-0.8" id="path431"/>
			<path d="M87.6,38.7c0,1,0.3,1.8,1,2.5c0.7,0.7,1.6,1.1,2.5,1.1c1,0,1.8-0.4,2.5-1.1c0.7-0.7,1.1-1.5,1.1-2.5c0-0.9-0.4-1.8-1.1-2.5c-0.7-0.7-1.5-1-2.5-1c-0.9,0-1.8,0.3-2.5,1c-0.7,0.7-1,1.6-1,2.5" id="path433"/>
			<path d="M83.6,60.4c-0.3-0.1-0.6,0.1-0.8,0.3c-0.3,0.2-0.4,0.5-0.4,0.8" id="path435"/>
			<path d="M83.7,61.7l-0.1-1.3" id="path437"/>
			<path d="M82.4,61.7h-1H55.7" id="path439"/>
			<path d="M82.4,61.5l-1,0.2" id="path441"/>
			<path d="M83.7,62.9c-0.4-0.1-0.7-0.2-0.9-0.4c-0.3-0.3-0.4-0.6-0.4-0.8c0-0.1,0-0.1,0-0.2" id="path443"/>
			<path d="M82.4,61.5l1.3,0.2" id="path445"/>
			<path d="M83.7,61.7v1.2" id="path447"/>
			<path d="M84.9,61.7c-0.1-0.4-0.2-0.6-0.4-0.9c-0.3-0.2-0.5-0.4-0.9-0.4" id="path449"/>
			<path d="M83.7,62.9c0.4,0,0.6-0.1,0.9-0.4c0.2-0.2,0.3-0.5,0.3-0.8" id="path451"/>
			<path d="M84.9,61.7h0.9" id="path453"/>
			<path d="M97.6,61.7H85.8h-0.9" id="path455"/>
			<path d="M84.9,61.7h-1.2" id="path457"/>
			<path d="M83.7,64.4V64v-1.1" id="path459"/>
			<path d="M83.7,62.9V64" id="path461"/>
			<path d="M83.7,77.3V64.4" id="path463"/>
			<path d="M120.1,61.7L97.6,47v14.7v14.6l22.5-14.6" id="path465"/>
			<path d="M120.1,61.7c0,0.9,0.4,1.7,1.1,2.5c0.7,0.6,1.5,1,2.5,1c0.9,0,1.8-0.4,2.5-1c0.7-0.8,1-1.6,1-2.5" id="path467"/>
			<path d="M127.2,61.7c0-1-0.3-1.9-1-2.5c-0.7-0.8-1.6-1.1-2.5-1.1c-1,0-1.8,0.3-2.5,1.1c-0.7,0.6-1.1,1.5-1.1,2.5" id="path469"/>
			<path d="M87.6,38.7L65.1,24.1v14.6v14.7l22.5-14.7" id="path471"/>
			<path d="M55.7,37.5c-0.4-0.1-0.6,0.1-0.9,0.3c-0.2,0.2-0.4,0.5-0.3,0.8" id="path473"/>
			<path d="M55.8,40h-0.1c-0.3-0.1-0.6-0.2-0.9-0.4c-0.2-0.3-0.3-0.6-0.3-0.9c0,0,0,0,0-0.1" id="path475"/>
			<path d="M55.7,38.7l0.1,1.3" id="path477"/>
			<path d="M54.5,38.6l1.2,0.1" id="path479"/>
			<path d="M55.7,40v1.1" id="path481"/>
			<path d="M55.7,56.4V41.1l0.1-1.1" id="path483"/>
			<path d="M54.5,38.6l-1,0.1" id="path485"/>
			<path d="M23.4,38.7h23.4h6.7h1" id="path487"/>
			<path d="M55.8,40c0.3,0,0.6-0.1,0.8-0.4c0.2-0.2,0.3-0.5,0.3-0.8" id="path489"/>
			<path d="M56.9,38.8l1-0.1h7.2" id="path491"/>
			<path d="M55.7,37.5c0.3,0,0.6,0.2,0.8,0.4c0.3,0.3,0.4,0.5,0.4,0.8v0.1" id="path493"/>
			<path d="M56.9,38.7h1" id="path495"/>
			<path d="M56.9,38.8l-1.2-0.1" id="path497"/>
			<path d="M55.7,38.7v-1.2" id="path499"/>
			<path d="M55.7,66.9c-1.4,0-2.6-0.5-3.7-1.6c-1-1-1.5-2.2-1.5-3.6" id="path501"/>
			<path d="M22.8,61.7h24h0.1" id="path503"/>
			<path d="M50.5,61.7h-3.6" id="path505"/>
			<path d="M55.7,81.3c-0.4-0.1-0.6,0.1-0.9,0.4c-0.2,0.1-0.4,0.4-0.3,0.7" id="path507"/>
			<path d="M55.7,81.3c0.3,0,0.6,0.2,0.8,0.4c0.3,0.3,0.4,0.5,0.4,0.8" id="path509"/>
			<path d="M55.7,81.3V66.9" id="path511"/>
			<path d="M50.5,61.7c0-1.5,0.5-2.7,1.5-3.8c1.1-1,2.3-1.5,3.7-1.5" id="path513"/>
			<path d="M55.7,61.7h-5.2" id="path515"/>
			<path d="M46.8,15.1v6" id="path517"/>
			<path d="M46.8,27.1v6" id="path519"/>
			<path d="M46.8,39.1v6" id="path521"/>
			<path d="M46.8,51.1v6.1" id="path523"/>
			<path d="M46.8,63.2v6" id="path525"/>
			<path d="M46.8,75.2v6" id="path527"/>
			<path d="M46.8,87.1v6" id="path529"/>
			<path d="M46.8,99.1v6" id="path531"/>
			<path d="M46.8,111.1v6" id="path533"/>
			<path d="M46.8,123.1v3.9" id="path535"/>
			<path d="M78.4,82.5h-3.6" id="path537"/>
			<path d="M78.4,82.5c0,1.5,0.5,2.7,1.6,3.7c1,1.1,2.2,1.6,3.7,1.6" id="path539"/>
			<path d="M56.9,82.5h1l-1,0.1" id="path541"/>
			<path d="M56.9,82.5v0.1" id="path543"/>
			<path d="M55.8,83.8c0.3,0,0.6-0.1,0.8-0.4c0.2-0.2,0.3-0.5,0.3-0.8" id="path545"/>
			<path d="M55.7,83.8v1.1l0.1-1.1" id="path547"/>
			<path d="M55.7,82.5l0.1,1.3" id="path549"/>
			<path d="M54.5,82.4c0,0.1,0,0.1,0,0.1c0,0.3,0.1,0.6,0.3,0.9c0.3,0.2,0.6,0.3,0.9,0.4" id="path551"/>
			<path d="M55.8,83.8h-0.1" id="path553"/>
			<path d="M54.5,82.4l1.2,0.1" id="path555"/>
			<path d="M56.9,82.6l-1.2-0.1" id="path557"/>
			<path d="M55.7,127V84.9" id="path559"/>
			<path d="M74.8,82.5H57.9" id="path561"/>
			<path d="M84.8,126.1c0-0.3-0.1-0.5-0.4-0.8c-0.2-0.2-0.5-0.4-0.7-0.4c-0.1,0-0.1,0-0.1,0" id="path563"/>
			<path d="M83.7,127.4c0.3-0.1,0.6-0.2,0.8-0.4s0.3-0.4,0.3-0.7v-0.1" id="path565"/>
			<path d="M84.8,126.1v0.1" id="path567"/>
			<path d="M85.8,126.1l-1,0.1" id="path569"/>
			<path d="M84.8,126.1h1" id="path571"/>
			<path d="M82.4,126c0,0.1,0,0.1,0,0.1c0,0.3,0.1,0.6,0.3,0.9c0.3,0.2,0.6,0.3,0.9,0.4" id="path573"/>
			<path d="M83.7,127.4h-0.1" id="path575"/>
			<path d="M83.6,126.1l0.1,1.3" id="path577"/>
			<path d="M83.6,124.9c-0.4-0.1-0.6,0.1-0.9,0.3c-0.2,0.2-0.4,0.5-0.3,0.8" id="path579"/>
			<path d="M82.4,126l1.2,0.1" id="path581"/>
			<path d="M83.6,127.4v1.1l0.1-1.1" id="path583"/>
			<path d="M84.8,126.2l-1.2-0.1" id="path585"/>
			<path d="M85.8,126.1l2.4,0.2" id="path587"/>
			<path d="M154.9,126.3H88.2h-3.4" id="path589"/>
			<path d="M83.6,126.1v-1.2" id="path591"/>
			<path d="M83.7,87.8v37.1" id="path593"/>
			<path d="M83.7,82.5h-5.3" id="path595"/>
			<path d="M78.4,82.5c0-1.4,0.5-2.6,1.6-3.7c1-1,2.2-1.5,3.7-1.5" id="path597"/>
			<path d="M55.7,82.5v-1.2" id="path599"/>
			<path d="M180.5,38.7v23" id="path601"/>
			<path d="M180.5,61.7H173" id="path603"/>
			<path d="M180.5,38.7H173" id="path605"/>
			<path d="M173,38.7h-8.3h-3.4" id="path607"/>
			<path d="M160.1,37.6c-0.4,0-0.6,0.1-0.9,0.4c-0.2,0.2-0.3,0.4-0.3,0.7v0.1" id="path609"/>
			<path d="M161.3,38.9c0-0.1,0-0.1,0-0.2c0-0.2-0.2-0.5-0.4-0.6c-0.2-0.3-0.5-0.4-0.8-0.5" id="path611"/>
			<path d="M161.3,38.9h1" id="path613"/>
			<path d="M162.3,38.9h-1" id="path615"/>
			<path d="M161.3,38.9" id="path617"/>
			<path d="M160.2,40.1c0.3,0,0.6-0.1,0.8-0.3c0.2-0.3,0.3-0.6,0.3-0.9" id="path619"/>
			<path d="M160.1,38.9l0.1,1.2" id="path621"/>
			<path d="M160.2,40.1h-0.1" id="path623"/>
			<path d="M161.3,38.9h-1.2" id="path625"/>
			<path d="M160.1,41.3l0.1-1.2" id="path627"/>
			<path d="M160.1,40.1v1.2" id="path629"/>
			<path d="M158.9,38.8l-1.1,0.1" id="path631"/>
			<path d="M157.8,38.9h1.1" id="path633"/>
			<path d="M158.9,38.9c0-0.1,0-0.1,0-0.1" id="path635"/>
			<path d="M160.1,40.1c-0.3,0-0.6-0.1-0.9-0.4c-0.2-0.2-0.3-0.5-0.3-0.8" id="path637"/>
			<path d="M160.1,41.3l0.1,1.8" id="path639"/>
			<path d="M160.2,50.9v-7.8v-3" id="path641"/>
			<path d="M158.9,38.8l1.2,0.1" id="path643"/>
			<path d="M94.7,38.7h59.1h5.1" id="path645"/>
			<path d="M157.8,38.9l-4-0.2" id="path647"/>
			<path d="M160.1,38.9v-1.3" id="path649"/>
			<path d="M154.9,61.7c0-1.5,0.5-2.7,1.6-3.8c1-1,2.2-1.5,3.7-1.5v-5.5" id="path651"/>
			<path d="M138.3,60.4c0.4,0,0.7,0.2,0.9,0.4c0.3,0.3,0.4,0.5,0.4,0.9" id="path653"/>
			<path d="M138.4,61.7l-0.1-1.3" id="path655"/>
			<path d="M138.3,60.4c-0.3-0.1-0.5,0.1-0.8,0.3c-0.2,0.2-0.4,0.5-0.3,0.8" id="path657"/>
			<path d="M138.5,62.9h-0.1c-0.3-0.1-0.6-0.2-0.9-0.4c-0.2-0.3-0.3-0.6-0.3-0.8c0-0.1,0-0.1,0-0.2" id="path659"/>
			<path d="M138.5,62.9c0.3,0,0.6-0.1,0.8-0.4c0.2-0.2,0.3-0.5,0.3-0.8" id="path661"/>
			<path d="M138.4,61.7l0.1,1.2" id="path663"/>
			<path d="M137.2,61.5l1.2,0.2" id="path665"/>
			<path d="M151.3,61.7h-10.7h-1" id="path667"/>
			<path d="M139.6,61.7h1" id="path669"/>
			<path d="M139.6,61.7h-1.2" id="path671"/>
			<path d="M137.2,61.5l-1,0.2H132" id="path673"/>
			<path d="M136.2,61.7h1" id="path675"/>
			<path d="M138.4,77.3V64l0.1-1.1" id="path677"/>
			<path d="M138.4,62.9V64" id="path679"/>
			<path d="M127.2,61.7h4.8" id="path681"/>
			<path d="M133.2,82.5c0-1.4,0.5-2.6,1.5-3.7c1.1-1,2.3-1.5,3.7-1.5" id="path683"/>
			<path d="M154.9,82.5c0-1.4,0.5-2.6,1.6-3.7c1-1,2.2-1.5,3.7-1.5V66.9c-1.5,0-2.7-0.5-3.7-1.6c-1.1-1-1.6-2.2-1.6-3.6" id="path685"/>
			<path d="M160.2,61.7h-5.3" id="path687"/>
			<path d="M154.9,61.7h-3.6" id="path689"/>
			<path d="M154.9,105.4c0-1.4,0.5-2.6,1.6-3.7c1-1,2.2-1.5,3.7-1.5V87.8c-1.5,0-2.7-0.5-3.7-1.6c-1.1-1-1.6-2.2-1.6-3.7" id="path691"/>
			<path d="M160.2,82.5h-5.3" id="path693"/>
			<path d="M160.2,105.4h-5.3" id="path695"/>
			<path d="M154.9,82.5h-3.6" id="path697"/>
			<path d="M154.9,105.4H143h-3.4" id="path699"/>
			<path d="M138.4,82.5h-5.2" id="path701"/>
			<path d="M133.2,82.5c0,1.5,0.5,2.7,1.5,3.7c1.1,1.1,2.3,1.6,3.7,1.6" id="path703"/>
			<path d="M138.3,104c0,0,0,0,0.1,0c0.3,0,0.5,0.2,0.8,0.4c0.2,0.3,0.3,0.5,0.4,0.8" id="path705"/>
			<path d="M138.3,104c-0.3-0.1-0.6,0.1-0.8,0.3c-0.3,0.2-0.4,0.5-0.4,0.8" id="path707"/>
			<path d="M137.1,105.1c0,0.1,0,0.1,0,0.1c0,0.3,0.1,0.6,0.4,0.9c0.2,0.2,0.5,0.3,0.8,0.4h0.1" id="path709"/>
			<path d="M139.6,105.2v0.1" id="path711"/>
			<path d="M138.4,106.5c0.4-0.1,0.6-0.2,0.9-0.4c0.1-0.2,0.2-0.4,0.3-0.7v-0.1" id="path713"/>
			<path d="M138.3,105.2l0.1,1.3" id="path715"/>
			<path d="M139.6,105.3l-1.3-0.1" id="path717"/>
			<path d="M138.3,105.2V104" id="path719"/>
			<path d="M137.1,105.1l1.2,0.1" id="path721"/>
			<path d="M139.6,105.3l0.9-0.1" id="path723"/>
			<path d="M139.6,105.2h0.9" id="path725"/>
			<path d="M138.4,87.8V104" id="path727"/>
			<path d="M133.2,82.5h-3.6" id="path729"/>
			<path d="M154.9,105.4c0,1.5,0.5,2.7,1.6,3.7c1,1.1,2.2,1.6,3.7,1.6v10.4c-1.5,0-2.7,0.5-3.7,1.5c-1.1,1.1-1.6,2.3-1.6,3.7" id="path731"/>
			<path d="M154.9,126.3c0,1.5,0.5,2.7,1.6,3.7c1,1.1,2.2,1.6,3.7,1.6" id="path733"/>
			<path d="M160.2,126.3h-5.3" id="path735"/>
			<path d="M140.5,105.2l2.5,0.2" id="path737"/>
			<path d="M151.3,82.5h-12.9" id="path739"/>
			<path d="M180.5,126.3H173" id="path741"/>
			<path d="M180.5,105.4H173" id="path743"/>
			<path d="M180.5,82.5H173" id="path745"/>
			<path d="M180.5,82.5v22.9" id="path747"/>
			<path d="M173,126.3h-12.8" id="path749"/>
			<path d="M173,105.4h-12.8" id="path751"/>
			<path d="M173,82.5h-12.8" id="path753"/>
			<path d="M173,61.7h-12.8" id="path755"/>
			<path d="M164.7,38.7l-2.4,0.2" id="path757"/>
			<path d="M129.6,82.5H83.7" id="path759"/>
			<path d="M218.6,181.6c0-0.1,0-0.1,0-0.1c0-4.6-1.8-8.6-5.4-11.9c-2.2-2-4.6-3.4-7.4-4.1h-25.3v4.6" id="path761"/>
			<path d="M173,170.1h7.5" id="path763"/>
			<path d="M180.5,149.2H173" id="path765"/>
			<path d="M180.5,149.2v4.3l25.4,0.1c2.7-0.8,5.1-2.2,7.3-4.1c3.4-3.2,5.2-6.9,5.4-11.3v-0.4" id="path767"/>
			<path d="M173,149.2h-8.1h-3.4" id="path769"/>
			<path d="M162.4,149l2.5,0.2" id="path771"/>
			<path d="M160.2,131.6V143" id="path773"/>
			<path d="M159,148.9c0,0.1,0,0.1,0,0.1c0,0.3,0.1,0.6,0.4,0.9c0.2,0.2,0.5,0.3,0.9,0.4" id="path775"/>
			<path d="M160.2,147.8c-0.4,0-0.6,0.1-0.8,0.3c-0.3,0.2-0.4,0.5-0.4,0.8" id="path777"/>
			<path d="M160.2,147.8c0.1,0,0.1,0,0.1,0c0.3,0,0.5,0.2,0.8,0.4c0.2,0.3,0.3,0.5,0.4,0.8" id="path779"/>
			<path d="M159,148.9l1.2,0.1h0.1" id="path781"/>
			<path d="M160.3,150.3c0.4-0.1,0.6-0.2,0.9-0.4c0.1-0.2,0.2-0.4,0.3-0.7v-0.1" id="path783"/>
			<path d="M161.5,149v0.1" id="path785"/>
			<path d="M160.3,149l-0.1-1.2" id="path787"/>
			<path d="M161.5,149.1l-1.2-0.1" id="path789"/>
			<path d="M160.3,149v1.3" id="path791"/>
			<path d="M160.2,143v4.8" id="path793"/>
			<path d="M160.2,143l0.1,4.8" id="path795"/>
			<path d="M180.5,193.1H173" id="path797"/>
			<path d="M180.5,193.1v4.3h25.4c2.7-0.8,5.1-2.2,7.3-4.1c3.5-3.3,5.3-7.2,5.4-11.7" id="path799"/>
			<path d="M161.5,206.3h6" id="path801"/>
			<path d="M173.5,206.3h6" id="path803"/>
			<path d="M185.5,206.3h6" id="path805"/>
			<path d="M197.5,206.3h4.9" id="path807"/>
			<path d="M180.5,170.1v23" id="path809"/>
			<path d="M162.4,149l-0.9,0.1" id="path811"/>
			<path d="M161.5,149h0.9" id="path813"/>
			<path d="M83.7,171.4c0.4,0,0.6-0.1,0.9-0.4c0.2-0.2,0.3-0.5,0.3-0.8" id="path815"/>
			<path d="M83.6,168.9h0.1c0.3,0,0.5,0.2,0.8,0.4c0.2,0.3,0.3,0.5,0.4,0.8" id="path817"/>
			<path d="M84.9,170.2l0.9-0.1h-0.9" id="path819"/>
			<path d="M84.9,170.1v0.1" id="path821"/>
			<path d="M83.6,168.9c-0.3-0.1-0.6,0.1-0.8,0.3c-0.3,0.2-0.4,0.5-0.4,0.8" id="path823"/>
			<path d="M82.4,170c0,0.1,0,0.1,0,0.1c0,0.3,0.1,0.6,0.4,0.9c0.2,0.2,0.5,0.3,0.9,0.4" id="path825"/>
			<path d="M83.7,170.1v1.3" id="path827"/>
			<path d="M83.7,170.1l-0.1-1.2" id="path829"/>
			<path d="M82.4,170l1.3,0.1" id="path831"/>
			<path d="M84.9,170.2l-1.2-0.1" id="path833"/>
			<path d="M55.7,191.8c0.3,0,0.6,0.2,0.8,0.4c0.3,0.3,0.4,0.5,0.4,0.9" id="path835"/>
			<path d="M55.7,193.1v-1.3" id="path837"/>
			<path d="M55.7,191.8c-0.4-0.1-0.6,0.1-0.9,0.3c-0.2,0.2-0.4,0.5-0.3,0.8" id="path839"/>
			<path d="M54.5,192.9l1.2,0.2" id="path841"/>
			<path d="M54.5,192.9c0,0.1,0,0.1,0,0.2c0,0.2,0.1,0.5,0.3,0.8c0.3,0.2,0.6,0.3,0.9,0.4h0.1" id="path843"/>
			<path d="M56.9,193.1h1h-1" id="path845"/>
			<path d="M56.9,193.1" id="path847"/>
			<path d="M56.9,193.1h-1.2" id="path849"/>
			<path d="M55.8,194.3c0.3,0,0.6-0.1,0.8-0.4c0.2-0.2,0.3-0.5,0.3-0.8" id="path851"/>
			<path d="M55.7,193.1l0.1,1.2" id="path853"/>
			<path d="M46.8,167.9v6" id="path855"/>
			<path d="M46.8,179.9v6" id="path857"/>
			<path d="M46.8,191.9v6" id="path859"/>
			<path d="M46.8,203.9v2.4h3.6" id="path861"/>
			<path d="M56.4,206.3h6" id="path863"/>
			<path d="M68.4,206.3h6" id="path865"/>
			<path d="M80.4,206.3h6" id="path867"/>
			<path d="M92.4,206.3h6" id="path869"/>
			<path d="M104.4,206.3h6" id="path871"/>
			<path d="M116.4,206.3h6" id="path873"/>
			<path d="M128.4,206.3h5.9" id="path875"/>
			<path d="M140.3,206.3h6" id="path877"/>
			<path d="M152.3,206.3h6.1" id="path879"/>
			<path d="M55.7,191.8v-23.9" id="path881"/>
			<path d="M173,193.1H57.9" id="path883"/>
			<path d="M85.8,170.1H173" id="path885"/>
			<path d="M227.5,117.3v6" id="path887"/>
			<path d="M227.5,129.3v6" id="path889"/>
			<path d="M227.5,141.3v6" id="path891"/>
			<path d="M227.5,153.3v4.9" id="path893"/>
			<path d="M248.6,137.8h-21.1h-8.9" id="path895"/>
			<path d="M202.4,206.3h6" id="path897"/>
			<path d="M214.4,206.3h6" id="path899"/>
			<path d="M226.4,206.3h1.1v-4.9" id="path901"/>
			<path d="M227.5,195.4v-6" id="path903"/>
			<path d="M227.5,183.4v-1.8v-4.2" id="path905"/>
			<path d="M227.5,171.4v-6" id="path907"/>
			<path d="M227.5,159.4v-1.2" id="path909"/>
			<path d="M248.6,181.6h-21.1h-8.9" id="path911"/>
			<path d="M46.8,127v6" id="path913"/>
			<path d="M46.8,139v6" id="path915"/>
			<path d="M46.8,151v6" id="path917"/>
			<path d="M46.8,163v4.9" id="path919"/>
			<path d="M180.5,126.3v22.9" id="path921"/>
			<path d="M55.7,167.9V127" id="path923"/>
			<path d="M83.7,127.4v41.5" id="path925"/>
			<path d="M386,44.1h-64.6" id="path927"/>

<!-- 2 to 4 line decoder -->
<switch>
		<text systemLanguage="ar" xml:space="preserve" style="font-size:9.6px;font-style:normal;font-variant:normal;font-weight:normal;font-stretch:normal;line-height:125%;letter-spacing:0px;word-spacing:0px;fill:#000000;fill-opacity:1;stroke:none;font-family:Times New Roman;-inkscape-font-specification:Times New Roman" x="135.44292" y="17.461561" id="text5296-5" sodipodi:linespacing="125%"><tspan sodipodi:role="line" id="tspan5298-6" x="135.44292" y="17.461561" style="font-size:9.6px;font-weight:bold;-inkscape-font-specification:'Times New Roman, Bold'">دو تا چهار خط کمی رسیور</tspan></text>
		<text systemLanguage="ca" xml:space="preserve" style="font-size:9.6px;font-style:normal;font-variant:normal;font-weight:normal;font-stretch:normal;line-height:125%;letter-spacing:0px;word-spacing:0px;fill:#000000;fill-opacity:1;stroke:none;font-family:Times New Roman;-inkscape-font-specification:Times New Roman" x="135.44292" y="17.461561" id="text5296-5" sodipodi:linespacing="125%"><tspan sodipodi:role="line" id="tspan5298-6" x="135.44292" y="17.461561" style="font-size:9.6px;font-weight:bold;-inkscape-font-specification:'Times New Roman, Bold'">Descodificador de 2 a 4</tspan></text>
		<text systemLanguage="es" xml:space="preserve" style="font-size:9.6px;font-style:normal;font-variant:normal;font-weight:normal;font-stretch:normal;line-height:125%;letter-spacing:0px;word-spacing:0px;fill:#000000;fill-opacity:1;stroke:none;font-family:Times New Roman;-inkscape-font-specification:Times New Roman" x="135.44292" y="17.461561" id="text5296-5" sodipodi:linespacing="125%"><tspan sodipodi:role="line" id="tspan5298-6" x="135.44292" y="17.461561" style="font-size:9.6px;font-weight:bold;-inkscape-font-specification:'Times New Roman, Bold'">Decodificador de 2 a 4 líneas</tspan></text>
		<text systemLanguage="fa" xml:space="preserve" style="font-size:9.6px;font-style:normal;font-variant:normal;font-weight:normal;font-stretch:normal;line-height:125%;letter-spacing:0px;word-spacing:0px;fill:#000000;fill-opacity:1;stroke:none;font-family:Times New Roman;-inkscape-font-specification:Times New Roman" x="135.44292" y="17.461561" id="text5296-5" sodipodi:linespacing="125%"><tspan sodipodi:role="line" id="tspan5298-6" x="135.44292" y="17.461561" style="font-size:9.6px;font-weight:bold;-inkscape-font-specification:'Times New Roman, Bold'">یک دیکودر ۲ به ۴ خط</tspan></text>
		<text systemLanguage="gl" xml:space="preserve" style="font-size:9.6px;font-style:normal;font-variant:normal;font-weight:normal;font-stretch:normal;line-height:125%;letter-spacing:0px;word-spacing:0px;fill:#000000;fill-opacity:1;stroke:none;font-family:Times New Roman;-inkscape-font-specification:Times New Roman" x="135.44292" y="17.461561" id="text5296-5" sodipodi:linespacing="125%"><tspan sodipodi:role="line" id="tspan5298-6" x="135.44292" y="17.461561" style="font-size:9.6px;font-weight:bold;-inkscape-font-specification:'Times New Roman, Bold'">Decodificador 2 a 4</tspan></text>
		<text systemLanguage="nl" xml:space="preserve" style="font-size:9.6px;font-style:normal;font-variant:normal;font-weight:normal;font-stretch:normal;line-height:125%;letter-spacing:0px;word-spacing:0px;fill:#000000;fill-opacity:1;stroke:none;font-family:Times New Roman;-inkscape-font-specification:Times New Roman" x="135.44292" y="17.461561" id="text5296-5" sodipodi:linespacing="125%"><tspan sodipodi:role="line" id="tspan5298-6" x="135.44292" y="17.461561" style="font-size:9.6px;font-weight:bold;-inkscape-font-specification:'Times New Roman, Bold'">2-tegen-4 lijn decoder</tspan></text>
		<text systemLanguage="pt" xml:space="preserve" style="font-size:9.6px;font-style:normal;font-variant:normal;font-weight:normal;font-stretch:normal;line-height:125%;letter-spacing:0px;word-spacing:0px;fill:#000000;fill-opacity:1;stroke:none;font-family:Times New Roman;-inkscape-font-specification:Times New Roman" x="135.44292" y="17.461561" id="text5296-5" sodipodi:linespacing="125%"><tspan sodipodi:role="line" id="tspan5298-6" x="135.44292" y="17.461561" style="font-size:9.6px;font-weight:bold;-inkscape-font-specification:'Times New Roman, Bold'">Decodificador 2 para 4</tspan></text>
		<text systemLanguage="ta" xml:space="preserve" style="font-size:9.6px;font-style:normal;font-variant:normal;font-weight:normal;font-stretch:normal;line-height:125%;letter-spacing:0px;word-spacing:0px;fill:#000000;fill-opacity:1;stroke:none;font-family:Times New Roman;-inkscape-font-specification:Times New Roman" x="135.44292" y="17.461561" id="text5296-5" sodipodi:linespacing="125%"><tspan sodipodi:role="line" id="tspan5298-6" x="135.44292" y="17.461561" style="font-size:9.6px;font-weight:bold;-inkscape-font-specification:'Times New Roman, Bold'">2-to-4 குறிவிலக்கி</tspan></text>
		<text systemLanguage="tr" xml:space="preserve" style="font-size:9.6px;font-style:normal;font-variant:normal;font-weight:normal;font-stretch:normal;line-height:125%;letter-spacing:0px;word-spacing:0px;fill:#000000;fill-opacity:1;stroke:none;font-family:Times New Roman;-inkscape-font-specification:Times New Roman" x="135.44292" y="17.461561" id="text5296-5" sodipodi:linespacing="125%"><tspan sodipodi:role="line" id="tspan5298-6" x="135.44292" y="17.461561" style="font-size:9.6px;font-weight:bold;-inkscape-font-specification:'Times New Roman, Bold'">2'ye 4'lük bir kod çözücü</tspan></text>
		<text systemLanguage="vi" xml:space="preserve" style="font-size:9.6px;font-style:normal;font-variant:normal;font-weight:normal;font-stretch:normal;line-height:125%;letter-spacing:0px;word-spacing:0px;fill:#000000;fill-opacity:1;stroke:none;font-family:Times New Roman;-inkscape-font-specification:Times New Roman" x="135.44292" y="17.461561" id="text5296-5" sodipodi:linespacing="125%"><tspan sodipodi:role="line" id="tspan5298-6" x="135.44292" y="17.461561" style="font-size:8px;font-weight:bold;-inkscape-font-specification:'Times New Roman, Bold'">2-to-4 đường bộ giải mã bit</tspan></text>
		<text systemLanguage="zh-Hans" xml:space="preserve" style="font-size:9.6px;font-style:normal;font-weight:normal;fill:#000000;fill-opacity:1;stroke:none;font-family:Bitstream Vera Sans" x="135.44292" y="17.938347" id="text3751"><tspan sodipodi:role="line" id="tspan3753" x="135.44292" y="17.938347" style="font-size:9.6px;font-family:微软雅黑;-inkscape-font-specification:微软雅黑">2线－4线一位译码器</tspan></text>
		<text systemLanguage="zh" xml:space="preserve" style="font-size:9.6px;font-style:normal;font-weight:normal;fill:#000000;fill-opacity:1;stroke:none;font-family:Bitstream Vera Sans" x="135.44292" y="17.938347" id="text3751"><tspan sodipodi:role="line" id="tspan3753" x="135.44292" y="17.938347" style="font-size:9.6px;font-family:微軟正黑體;-inkscape-font-specification:微軟正黑體;font-weight:normal;font-style:normal;font-stretch:normal;font-variant:normal">2線－4線一位解碼器</tspan></text>
		<text systemLanguage="fr" xml:space="preserve" style="font-size:9.6px;font-style:normal;font-variant:normal;font-weight:normal;font-stretch:normal;line-height:125%;letter-spacing:0px;word-spacing:0px;fill:#000000;fill-opacity:1;stroke:none;font-family:Times New Roman;-inkscape-font-specification:Times New Roman" x="135.44292" y="17.461561" id="text5296-5" sodipodi:linespacing="125%"><tspan sodipodi:role="line" id="tspan5298-6" x="135.44292" y="17.461561" style="font-size:7.6px;font-weight:bold;-inkscape-font-specification:'Times New Roman, Bold'">Décodeur 2-vers-4 à bit unique</tspan></text>
		<text xml:space="preserve" style="font-size:9.6px;font-style:normal;font-variant:normal;font-weight:normal;font-stretch:normal;line-height:125%;letter-spacing:0px;word-spacing:0px;fill:#000000;fill-opacity:1;stroke:none;font-family:Times New Roman;-inkscape-font-specification:Times New Roman" x="135.44292" y="17.461561" id="text5296-5" sodipodi:linespacing="125%"><tspan sodipodi:role="line" id="tspan5298-6" x="135.44292" y="17.461561" style="font-size:7.6px;font-weight:bold;-inkscape-font-specification:'Times New Roman, Bold'">A 2-to-4 line single bit decoder</tspan></text>
</switch>

<!-- Truth table -->
<switch>
		<text systemLanguage="ar" xml:space="preserve" style="font-size:9.6px;font-style:normal;font-variant:normal;font-weight:normal;font-stretch:normal;line-height:125%;letter-spacing:0px;word-spacing:0px;fill:#000000;fill-opacity:1;stroke:none;font-family:Times New Roman;-inkscape-font-specification:Times New Roman" x="309.59705" y="22.02091" id="text5296" sodipodi:linespacing="125%"><tspan sodipodi:role="line" id="tspan5298" x="335.76071" y="22.02091" style="font-size:9.6px;font-weight:bold;-inkscape-font-specification:'Times New Roman, Bold'">الحقيقة الجدول</tspan></text>
		<text systemLanguage="ca" xml:space="preserve" style="font-size:9.6px;font-style:normal;font-variant:normal;font-weight:normal;font-stretch:normal;line-height:125%;letter-spacing:0px;word-spacing:0px;fill:#000000;fill-opacity:1;stroke:none;font-family:Times New Roman;-inkscape-font-specification:Times New Roman" x="309.59705" y="22.02091" id="text5296" sodipodi:linespacing="125%"><tspan sodipodi:role="line" id="tspan5298" x="335.76071" y="22.02091" style="font-size:9.6px;font-weight:bold;-inkscape-font-specification:'Times New Roman, Bold'">Taula de Veritat</tspan></text>
		<text systemLanguage="es" xml:space="preserve" style="font-size:9.6px;font-style:normal;font-variant:normal;font-weight:normal;font-stretch:normal;line-height:125%;letter-spacing:0px;word-spacing:0px;fill:#000000;fill-opacity:1;stroke:none;font-family:Times New Roman;-inkscape-font-specification:Times New Roman" x="309.59705" y="22.02091" id="text5296" sodipodi:linespacing="125%"><tspan sodipodi:role="line" id="tspan5298" x="335.76071" y="22.02091" style="font-size:9.6px;font-weight:bold;-inkscape-font-specification:'Times New Roman, Bold'">Tabla de verdad</tspan></text>
		<text systemLanguage="fr" xml:space="preserve" style="font-size:9.6px;font-style:normal;font-variant:normal;font-weight:normal;font-stretch:normal;line-height:125%;letter-spacing:0px;word-spacing:0px;fill:#000000;fill-opacity:1;stroke:none;font-family:Times New Roman;-inkscape-font-specification:Times New Roman" x="309.59705" y="22.02091" id="text5296" sodipodi:linespacing="125%"><tspan sodipodi:role="line" id="tspan5298" x="335.76071" y="22.02091" style="font-size:9.6px;font-weight:bold;-inkscape-font-specification:'Times New Roman, Bold'">Table de vérité</tspan></text>
		<text systemLanguage="fa" xml:space="preserve" style="font-size:9.6px;font-style:normal;font-variant:normal;font-weight:normal;font-stretch:normal;line-height:125%;letter-spacing:0px;word-spacing:0px;fill:#000000;fill-opacity:1;stroke:none;font-family:Times New Roman;-inkscape-font-specification:Times New Roman" x="309.59705" y="22.02091" id="text5296" sodipodi:linespacing="125%"><tspan sodipodi:role="line" id="tspan5298" x="335.76071" y="22.02091" style="font-size:9.6px;font-weight:bold;-inkscape-font-specification:'Times New Roman, Bold'">جدول ارزش</tspan></text>
		<text systemLanguage="gl" xml:space="preserve" style="font-size:9.6px;font-style:normal;font-variant:normal;font-weight:normal;font-stretch:normal;line-height:125%;letter-spacing:0px;word-spacing:0px;fill:#000000;fill-opacity:1;stroke:none;font-family:Times New Roman;-inkscape-font-specification:Times New Roman" x="309.59705" y="22.02091" id="text5296" sodipodi:linespacing="125%"><tspan sodipodi:role="line" id="tspan5298" x="335.76071" y="22.02091" style="font-size:9.6px;font-weight:bold;-inkscape-font-specification:'Times New Roman, Bold'">Táboa Verdade</tspan></text>
		<text systemLanguage="nl" xml:space="preserve" style="font-size:9.6px;font-style:normal;font-variant:normal;font-weight:normal;font-stretch:normal;line-height:125%;letter-spacing:0px;word-spacing:0px;fill:#000000;fill-opacity:1;stroke:none;font-family:Times New Roman;-inkscape-font-specification:Times New Roman" x="309.59705" y="22.02091" id="text5296" sodipodi:linespacing="125%"><tspan sodipodi:role="line" id="tspan5298" x="335.76071" y="22.02091" style="font-size:9.6px;font-weight:bold;-inkscape-font-specification:'Times New Roman, Bold'">Waarheidstabel</tspan></text>
		<text systemLanguage="pt" xml:space="preserve" style="font-size:9.6px;font-style:normal;font-variant:normal;font-weight:normal;font-stretch:normal;line-height:125%;letter-spacing:0px;word-spacing:0px;fill:#000000;fill-opacity:1;stroke:none;font-family:Times New Roman;-inkscape-font-specification:Times New Roman" x="309.59705" y="22.02091" id="text5296" sodipodi:linespacing="125%"><tspan sodipodi:role="line" id="tspan5298" x="335.76071" y="22.02091" style="font-size:9.6px;font-weight:bold;-inkscape-font-specification:'Times New Roman, Bold'">Tabela Verdade</tspan></text>
		<text systemLanguage="ta" xml:space="preserve" style="font-size:9.6px;font-style:normal;font-variant:normal;font-weight:normal;font-stretch:normal;line-height:125%;letter-spacing:0px;word-spacing:0px;fill:#000000;fill-opacity:1;stroke:none;font-family:Times New Roman;-inkscape-font-specification:Times New Roman" x="309.59705" y="22.02091" id="text5296" sodipodi:linespacing="125%"><tspan sodipodi:role="line" id="tspan5298" x="335.76071" y="22.02091" style="font-size:8px;font-weight:bold;-inkscape-font-specification:'Times New Roman, Bold'">உண்மையை அட்டவணை</tspan></text>
		<text systemLanguage="tr" xml:space="preserve" style="font-size:9.6px;font-style:normal;font-variant:normal;font-weight:normal;font-stretch:normal;line-height:125%;letter-spacing:0px;word-spacing:0px;fill:#000000;fill-opacity:1;stroke:none;font-family:Times New Roman;-inkscape-font-specification:Times New Roman" x="309.59705" y="22.02091" id="text5296" sodipodi:linespacing="125%"><tspan sodipodi:role="line" id="tspan5298" x="335.76071" y="22.02091" style="font-size:9.6px;font-weight:bold;-inkscape-font-specification:'Times New Roman, Bold'">Doğruluk Tablosu</tspan></text>
		<text systemLanguage="vi" xml:space="preserve" style="font-size:9.6px;font-style:normal;font-variant:normal;font-weight:normal;font-stretch:normal;line-height:125%;letter-spacing:0px;word-spacing:0px;fill:#000000;fill-opacity:1;stroke:none;font-family:Times New Roman;-inkscape-font-specification:Times New Roman" x="309.59705" y="22.02091" id="text5296" sodipodi:linespacing="125%"><tspan sodipodi:role="line" id="tspan5298" x="335.76071" y="22.02091" style="font-size:9.6px;font-weight:bold;-inkscape-font-specification:'Times New Roman, Bold'">Bảng sự thật</tspan></text>
		<text systemLanguage="zh-Hans" xml:space="preserve" style="font-size:9.6px;font-style:normal;font-weight:normal;fill:#000000;fill-opacity:1;stroke:none;font-family:Bitstream Vera Sans" x="321.92053" y="19.538347" id="text3747"><tspan sodipodi:role="line" id="tspan3749" x="335.76071" y="19.538347" style="font-size:9.6px;font-family:微软雅黑;-inkscape-font-specification:微软雅黑">真值表</tspan></text>
		<text systemLanguage="zh" xml:space="preserve" style="font-size:9.6px;font-style:normal;font-weight:normal;fill:#000000;fill-opacity:1;stroke:none;font-family:Bitstream Vera Sans" x="321.92053" y="19.538347" id="text3747"><tspan sodipodi:role="line" id="tspan3749" x="335.76071" y="19.538347" style="font-size:9.6px;font-family:微軟正黑體;-inkscape-font-specification:微軟正黑體;font-weight:normal;font-style:normal;font-stretch:normal;font-variant:normal">真值表</tspan></text>
		<text xml:space="preserve" style="font-size:9.6px;font-style:normal;font-variant:normal;font-weight:normal;font-stretch:normal;line-height:125%;letter-spacing:0px;word-spacing:0px;fill:#000000;fill-opacity:1;stroke:none;font-family:Times New Roman;-inkscape-font-specification:Times New Roman" x="335.76071" y="22.02091" id="text5296" sodipodi:linespacing="125%"><tspan sodipodi:role="line" id="tspan5298" x="335.76071" y="22.02091" style="font-size:9.6px;font-weight:bold;-inkscape-font-specification:'Times New Roman, Bold'">Truth Table</tspan></text>
</switch>

<!-- Minterm equations -->
<switch>
		<text systemLanguage="ar" xml:space="preserve" style="font-size:9.6px;font-style:normal;font-variant:normal;font-weight:normal;font-stretch:normal;line-height:125%;letter-spacing:0px;word-spacing:0px;fill:#000000;fill-opacity:1;stroke:none;font-family:Times New Roman;-inkscape-font-specification:Times New Roman" x="337.76071" y="134.06058" id="text5296-8" sodipodi:linespacing="125%"><tspan sodipodi:role="line" id="tspan5298-0" x="337.76071" y="134.06058" style="font-size:9.6px;font-weight:bold;-inkscape-font-specification:'Times New Roman, Bold'">المعادلات</tspan></text>
		<text systemLanguage="ca" xml:space="preserve" style="font-size:9.6px;font-style:normal;font-variant:normal;font-weight:normal;font-stretch:normal;line-height:125%;letter-spacing:0px;word-spacing:0px;fill:#000000;fill-opacity:1;stroke:none;font-family:Times New Roman;-inkscape-font-specification:Times New Roman" x="337.76071" y="134.06058" id="text5296-8" sodipodi:linespacing="125%"><tspan sodipodi:role="line" id="tspan5298-0" x="337.76071" y="134.06058" style="font-size:9.6px;font-weight:bold;-inkscape-font-specification:'Times New Roman, Bold'">Miniterme Equacions</tspan></text>
		<text systemLanguage="es" xml:space="preserve" style="font-size:9.6px;font-style:normal;font-variant:normal;font-weight:normal;font-stretch:normal;line-height:125%;letter-spacing:0px;word-spacing:0px;fill:#000000;fill-opacity:1;stroke:none;font-family:Times New Roman;-inkscape-font-specification:Times New Roman" x="337.76071" y="134.06058" id="text5296-8" sodipodi:linespacing="125%"><tspan sodipodi:role="line" id="tspan5298-0" x="337.76071" y="134.06058" style="font-size:9.6px;font-weight:bold;-inkscape-font-specification:'Times New Roman, Bold'">Minitérminos</tspan></text>
		<text systemLanguage="fr" xml:space="preserve" style="font-size:9.6px;font-style:normal;font-variant:normal;font-weight:normal;font-stretch:normal;line-height:125%;letter-spacing:0px;word-spacing:0px;fill:#000000;fill-opacity:1;stroke:none;font-family:Times New Roman;-inkscape-font-specification:Times New Roman" x="337.76071" y="134.06058" id="text5296-8" sodipodi:linespacing="125%"><tspan sodipodi:role="line" id="tspan5298-0" x="337.76071" y="134.06058" style="font-size:9.6px;font-weight:bold;-inkscape-font-specification:'Times New Roman, Bold'">Opérations booléennes</tspan></text>
		<text systemLanguage="fa" xml:space="preserve" style="font-size:9.6px;font-style:normal;font-variant:normal;font-weight:normal;font-stretch:normal;line-height:125%;letter-spacing:0px;word-spacing:0px;fill:#000000;fill-opacity:1;stroke:none;font-family:Times New Roman;-inkscape-font-specification:Times New Roman" x="337.76071" y="134.06058" id="text5296-8" sodipodi:linespacing="125%"><tspan sodipodi:role="line" id="tspan5298-0" x="337.76071" y="134.06058" style="font-size:9.6px;font-weight:bold;-inkscape-font-specification:'Times New Roman, Bold'">معادلات</tspan></text>
		<text systemLanguage="gl" xml:space="preserve" style="font-size:9.6px;font-style:normal;font-variant:normal;font-weight:normal;font-stretch:normal;line-height:125%;letter-spacing:0px;word-spacing:0px;fill:#000000;fill-opacity:1;stroke:none;font-family:Times New Roman;-inkscape-font-specification:Times New Roman" x="337.76071" y="134.06058" id="text5296-8" sodipodi:linespacing="125%"><tspan sodipodi:role="line" id="tspan5298-0" x="337.76071" y="134.06058" style="font-size:9.6px;font-weight:bold;-inkscape-font-specification:'Times New Roman, Bold'">Minitermo Ecuacións</tspan></text>
		<text systemLanguage="nl" xml:space="preserve" style="font-size:9.6px;font-style:normal;font-variant:normal;font-weight:normal;font-stretch:normal;line-height:125%;letter-spacing:0px;word-spacing:0px;fill:#000000;fill-opacity:1;stroke:none;font-family:Times New Roman;-inkscape-font-specification:Times New Roman" x="337.76071" y="134.06058" id="text5296-8" sodipodi:linespacing="125%"><tspan sodipodi:role="line" id="tspan5298-0" x="337.76071" y="134.06058" style="font-size:9.6px;font-weight:bold;-inkscape-font-specification:'Times New Roman, Bold'">Minterm Vergelijkingen</tspan></text>
		<text systemLanguage="pt" xml:space="preserve" style="font-size:9.6px;font-style:normal;font-variant:normal;font-weight:normal;font-stretch:normal;line-height:125%;letter-spacing:0px;word-spacing:0px;fill:#000000;fill-opacity:1;stroke:none;font-family:Times New Roman;-inkscape-font-specification:Times New Roman" x="337.76071" y="134.06058" id="text5296-8" sodipodi:linespacing="125%"><tspan sodipodi:role="line" id="tspan5298-0" x="337.76071" y="134.06058" style="font-size:9.6px;font-weight:bold;-inkscape-font-specification:'Times New Roman, Bold'">Minitermo Equações</tspan></text>
		<text systemLanguage="ta" xml:space="preserve" style="font-size:9.6px;font-style:normal;font-variant:normal;font-weight:normal;font-stretch:normal;line-height:125%;letter-spacing:0px;word-spacing:0px;fill:#000000;fill-opacity:1;stroke:none;font-family:Times New Roman;-inkscape-font-specification:Times New Roman" x="337.76071" y="134.06058" id="text5296-8" sodipodi:linespacing="125%"><tspan sodipodi:role="line" id="tspan5298-0" x="337.76071" y="134.06058" style="font-size:9.6px;font-weight:bold;-inkscape-font-specification:'Times New Roman, Bold'">சமன்பாடுகள்</tspan></text>
		<text systemLanguage="tr" xml:space="preserve" style="font-size:9.6px;font-style:normal;font-variant:normal;font-weight:normal;font-stretch:normal;line-height:125%;letter-spacing:0px;word-spacing:0px;fill:#000000;fill-opacity:1;stroke:none;font-family:Times New Roman;-inkscape-font-specification:Times New Roman" x="337.76071" y="134.06058" id="text5296-8" sodipodi:linespacing="125%"><tspan sodipodi:role="line" id="tspan5298-0" x="337.76071" y="134.06058" style="font-size:9.6px;font-weight:bold;-inkscape-font-specification:'Times New Roman, Bold'">Minterm'e Denklemler</tspan></text>
		<text systemLanguage="vi" xml:space="preserve" style="font-size:9.6px;font-style:normal;font-variant:normal;font-weight:normal;font-stretch:normal;line-height:125%;letter-spacing:0px;word-spacing:0px;fill:#000000;fill-opacity:1;stroke:none;font-family:Times New Roman;-inkscape-font-specification:Times New Roman" x="337.76071" y="134.06058" id="text5296-8" sodipodi:linespacing="125%"><tspan sodipodi:role="line" id="tspan5298-0" x="337.76071" y="134.06058" style="font-size:9.6px;font-weight:bold;-inkscape-font-specification:'Times New Roman, Bold'">Minterm phương trình</tspan></text>
		<text systemLanguage="zh-Hans" xml:space="preserve" style="font-size:9.6px;font-style:normal;font-weight:normal;fill:#000000;fill-opacity:1;stroke:none;font-family:Bitstream Vera Sans" x="337.76071" y="132.52136" id="text3741"><tspan sodipodi:role="line" id="tspan3743" x="337.76071" y="132.52136" style="font-size:9.6px;font-family:微软雅黑;-inkscape-font-specification:微软雅黑">最小项等式</tspan></text>
	<text systemLanguage="zh" xml:space="preserve" style="font-size:9.6px;font-style:normal;font-weight:normal;fill:#000000;fill-opacity:1;stroke:none;font-family:Bitstream Vera Sans" x="337.76071" y="132.52136" id="text3741"><tspan sodipodi:role="line" id="tspan3743" x="337.76071" y="132.52136" style="font-size:9.6px;font-family:微軟正黑體;-inkscape-font-specification:微軟正黑體;font-weight:normal;font-style:normal;font-stretch:normal;font-variant:normal">最小項等式</tspan></text>
		<text xml:space="preserve" style="font-size:9.6px;font-style:normal;font-variant:normal;font-weight:normal;font-stretch:normal;line-height:125%;letter-spacing:0px;word-spacing:0px;fill:#000000;fill-opacity:1;stroke:none;font-family:Times New Roman;-inkscape-font-specification:Times New Roman" x="337.76071" y="134.06058" id="text5296-8" sodipodi:linespacing="125%"><tspan sodipodi:role="line" id="tspan5298-0" x="337.76071" y="134.06058" style="font-size:9.6px;font-weight:bold;-inkscape-font-specification:'Times New Roman, Bold'">Minterm Equations</tspan></text>
</switch>
</g>
</g>
</g>
</svg>
